<svg xmlns="http://www.w3.org/2000/svg" viewBox="0 0 750 500"><g id="freepik--background-complete--inject-2"><path d="M692.37,304.22l-13.12.28-6.66.11c-2.23.05-4.47,0-6.7.06h-.44v-.45L665.39,293v-.5h.5l13.24.06c4.42,0,8.83.11,13.24.16h.28V293c0,1.9-.08,3.79-.13,5.66Zm0,0-.14-5.65c-.05-1.86-.11-3.7-.13-5.54l.27.28c-4.41.05-8.82.16-13.24.16l-13.24.06.5-.5,0,11.19-.45-.44c2.18,0,4.36,0,6.55.05L679,304Z" style="fill:#ebebeb"></path><path d="M677.6,318.33l-13.12.28-6.67.11c-2.22,0-4.46,0-6.69.06h-.44v-.45l0-11.19v-.5h.5l13.24.07c4.41,0,8.83.11,13.24.16h.28v.27c0,1.9-.08,3.79-.13,5.66Zm0,0-.14-5.65c-.05-1.86-.11-3.7-.13-5.54l.27.28c-4.41.05-8.83.16-13.24.16l-13.24.06.5-.5,0,11.19-.45-.44c2.18,0,4.36,0,6.55.05l6.57.12Z" style="fill:#ebebeb"></path><path d="M707.14,318.33l-13.12.28-6.66.11c-2.23,0-4.47,0-6.7.06h-.44v-.45l-.06-11.19v-.5h.5l13.24.07c4.42,0,8.83.11,13.24.16h.28v.27c0,1.9-.09,3.79-.13,5.66Zm0,0-.14-5.65c0-1.86-.11-3.7-.13-5.54l.27.28c-4.41.05-8.82.16-13.24.16l-13.24.06.5-.5,0,11.19-.45-.44c2.19,0,4.36,0,6.55.05l6.58.12Z" style="fill:#ebebeb"></path><path d="M314.79,171.07l-13.12.28-6.66.11c-2.23,0-4.47,0-6.7,0h-.44v-.45l-.06-11.19v-.5h.5l13.24.06c4.42,0,8.83.11,13.24.16h.28v.27c0,1.9-.09,3.78-.14,5.65Zm0,0-.14-5.66c0-1.86-.11-3.7-.13-5.53l.27.27c-4.41,0-8.82.16-13.24.16l-13.24.07.5-.5-.05,11.19-.45-.45c2.18,0,4.36,0,6.55.06l6.58.11Z" style="fill:#ebebeb"></path><path d="M300,185.18l-13.12.28-6.67.11c-2.22,0-4.46,0-6.69.05h-.44v-.45L273,174v-.5h.5l13.24.06c4.41,0,8.83.11,13.24.16h.28V174c0,1.9-.08,3.78-.13,5.65Zm0,0-.14-5.66c-.05-1.86-.11-3.7-.13-5.53l.27.27c-4.41.05-8.83.16-13.24.16l-13.24.07.5-.5L274,185.18l-.45-.45c2.18,0,4.36,0,6.55.06l6.57.11Z" style="fill:#ebebeb"></path><path d="M329.56,185.18l-13.12.28-6.66.11c-2.23,0-4.46,0-6.7.05h-.44v-.45L302.58,174v-.5h.5l13.24.06c4.42,0,8.83.11,13.24.16h.28V174c0,1.9-.09,3.78-.13,5.65Zm0,0-.14-5.66c0-1.86-.11-3.7-.13-5.53l.27.27c-4.41.05-8.82.16-13.24.16l-13.24.07.5-.5-.05,11.19-.45-.45c2.19,0,4.36,0,6.55.06l6.58.11Z" style="fill:#ebebeb"></path><path d="M98.88,245.11l-13.12.28-6.67.11c-2.22,0-4.46,0-6.69.05H72v-.45l0-11.19v-.5h.5l13.24.06c4.41,0,8.83.11,13.24.16h.28v.27c0,1.9-.08,3.78-.13,5.65Zm0,0-.14-5.66c0-1.86-.11-3.7-.13-5.53l.27.27c-4.41.05-8.83.16-13.24.16l-13.24.07.5-.5-.05,11.19-.45-.45c2.18,0,4.36,0,6.55.06l6.57.11Z" style="fill:#ebebeb"></path><path d="M537.86,171.06l-13.12.28-6.66.11c-2.23.05-4.47,0-6.7.05h-.44v-.45l-.06-11.19v-.5h.5l13.24.06c4.42,0,8.83.12,13.24.17h.28v.27c0,1.9-.08,3.79-.13,5.65Zm0,0-.14-5.65c-.05-1.87-.11-3.71-.13-5.54l.27.27c-4.41.05-8.82.16-13.24.17l-13.24.06.5-.5-.05,11.19-.45-.45c2.18,0,4.36,0,6.55.06l6.58.11Z" style="fill:#ebebeb"></path><path d="M690.84,62.38l-13.12.28-6.67.11c-2.22,0-4.46,0-6.69.06h-.44v-.45l0-11.19v-.5h.5l13.24.06c4.41,0,8.83.12,13.24.17h.28v.27c0,1.9-.08,3.79-.13,5.65Zm0,0-.14-5.65c-.05-1.87-.11-3.71-.13-5.54l.27.27c-4.41,0-8.83.16-13.24.17l-13.24.06.5-.5-.05,11.19-.45-.45c2.18,0,4.36,0,6.55.06l6.57.11Z" style="fill:#ebebeb"></path><path d="M705.61,76.49l-13.12.28-6.66.11c-2.23.05-4.47,0-6.7.05h-.44v-.45l-.06-11.19v-.5h.5l13.24.06c4.42,0,8.83.12,13.24.17h.28v.27c0,1.9-.09,3.79-.14,5.65Zm0,0-.14-5.65c0-1.87-.11-3.71-.13-5.54l.27.27c-4.41.05-8.82.16-13.24.17l-13.24.06.5-.5,0,11.19-.45-.45c2.18,0,4.36,0,6.55.06l6.58.11Z" style="fill:#ebebeb"></path><path d="M69.34,62.39l-13.13.28-6.66.11c-2.22,0-4.46,0-6.69.06h-.45v-.45l0-11.19v-.5h.51l13.24.07c4.41,0,8.82.11,13.24.16h.27v.27c0,1.9-.09,3.79-.13,5.66Zm0,0-.15-5.65c0-1.87-.11-3.71-.13-5.54l.28.27c-4.42.06-8.83.16-13.24.17l-13.24.06.5-.5L43.3,62.39,42.86,62c2.18,0,4.35,0,6.54,0l6.58.11Z" style="fill:#ebebeb"></path><rect x="178.46" y="53.22" width="118.54" height="79.88" style="fill:#fff"></rect><path d="M297.49,133.6H178V52.72H297.49ZM179,132.6H296.49V53.72H179Z" style="fill:#ebebeb"></path><path d="M189.91,59.26a2.73,2.73,0,1,1-2.73-2.73A2.73,2.73,0,0,1,189.91,59.26Z" style="fill:#37474f"></path><path d="M201.06,59.26a2.73,2.73,0,1,1-2.73-2.73A2.73,2.73,0,0,1,201.06,59.26Z" style="fill:#ebebeb"></path><path d="M212.2,59.26a2.73,2.73,0,1,1-2.73-2.73A2.73,2.73,0,0,1,212.2,59.26Z" style="fill:#FF4F5A"></path><rect x="178.46" y="64.75" width="118.54" height="1" style="fill:#ebebeb"></rect><path d="M200,158.58c0-1.25.17-4.58.17-6,0-6.08-2.17-8.83-7.83-9-2.66-.16-4.24-1.74-4.24-4s1.58-3.83,4.24-4c5.66-.25,7.83-2.91,7.83-9.08,0-1.41-.17-4.74-.17-6,0-8.08,3.42-13.24,16.32-16.07,2.59-.59,4.58,1,4.58,3.41a3.49,3.49,0,0,1-2.33,3.41c-8.07,2.5-9.24,5.08-9.24,10.75,0,1.66.17,4.41.17,6.16,0,6.49-3.17,9.66-8.66,11.41,5.58,1.83,8.66,4.91,8.66,11.41,0,1.74-.17,4.49-.17,6.16,0,5.66,1.17,8.24,9.24,10.74a3.49,3.49,0,0,1,2.33,3.41c0,2.42-2,4-4.58,3.42C203.42,171.91,200,166.74,200,158.58Z" style="fill:#ebebeb"></path><path d="M248.8,120.53c0,1.25-.17,4.58-.17,6,0,6.17,2.25,8.83,7.92,9.08,2.58.17,4.16,1.75,4.16,4s-1.58,3.83-4.16,4c-5.67.17-7.92,2.92-7.92,9,0,1.41.17,4.74.17,6,0,8.16-3.41,13.33-16.32,16.16-2.58.58-4.58-1-4.58-3.42a3.45,3.45,0,0,1,2.41-3.41c8-2.5,9.16-5.08,9.16-10.74,0-1.67-.16-4.42-.16-6.16,0-6.5,3.16-9.66,8.66-11.41-5.58-1.83-8.66-4.92-8.66-11.41,0-1.75.16-4.5.16-6.16,0-5.67-1.16-8.25-9.16-10.75a3.45,3.45,0,0,1-2.41-3.41c0-2.41,2-4,4.58-3.41C245.39,107.29,248.8,112.45,248.8,120.53Z" style="fill:#ebebeb"></path><path d="M614.58,210.8a3.39,3.39,0,0,1-2.37,5.81,3.58,3.58,0,0,1-2.48-1L594.61,200.3a.41.41,0,0,1-.27-.32l-.16-.11a1.54,1.54,0,0,1-.17-.43.3.3,0,0,1-.16-.21c-.05-.11-.05-.27-.1-.33s-.11-.21-.11-.26v-.38c0-.11-.06-.16-.06-.32s.06-.22.06-.27v-.38c0-.11.11-.16.11-.22s0-.26.1-.43.06,0,.06-.1a3.17,3.17,0,0,1,.27-.49s0-.11.1-.11a1.2,1.2,0,0,1,.33-.37l15.12-15.34a3.52,3.52,0,0,1,4.85,0,3.42,3.42,0,0,1,0,4.84l-12.76,12.87Z" style="fill:#ebebeb"></path><path d="M628.3,212.52l13.19-31.38a3,3,0,0,1,3.93-1.56,2.9,2.9,0,0,1,1.5,3.82l-13.18,31.44a3,3,0,0,1-2.75,1.77,2.63,2.63,0,0,1-1.08-.21A2.91,2.91,0,0,1,628.3,212.52Z" style="fill:#ebebeb"></path><path d="M673,199.87s0,.06-.05.06a2.69,2.69,0,0,1-.38.37l-15.12,15.34a3.52,3.52,0,0,1-4.85,0,3.42,3.42,0,0,1,0-4.84l12.76-12.86-12.76-12.87a3.42,3.42,0,0,1,0-4.84,3.52,3.52,0,0,1,4.85,0l15.12,15.34a3.38,3.38,0,0,1,.38.37c.05,0,.05.11.05.11a4.37,4.37,0,0,1,.27.49c0,.05.06.05.06.1a2.12,2.12,0,0,0,.16.49c0,.05,0,.05,0,.16v.38c0,.05,0,.21,0,.27s0,.21,0,.26v.44c0,.05,0,.05,0,.1a3.75,3.75,0,0,0-.16.49c0,.05-.06.05-.06.16S673.08,199.66,673,199.87Z" style="fill:#ebebeb"></path><path d="M586.5,133.33a12.9,12.9,0,0,1-12,12.87v0H501.46A15.17,15.17,0,0,1,500,116a25.56,25.56,0,0,1,49.53-8A15.18,15.18,0,0,1,571.5,120.6a12,12,0,0,1,2.09-.17A12.91,12.91,0,0,1,586.5,133.33Z" style="fill:#ebebeb"></path><path d="M657.88,309.06l8.29-13.37-4.12-2.55a3.74,3.74,0,0,1-1.71-3.52,22,22,0,0,0,.08-2.3,3.76,3.76,0,0,1,2-3.43l4.24-2.28-7.44-13.87L654.93,270a3.69,3.69,0,0,1-3.84-.21,23.52,23.52,0,0,0-2.13-1.32,3.69,3.69,0,0,1-1.91-3.36l.16-4.81-15.73-.49-.15,4.83a3.68,3.68,0,0,1-2.13,3.23c-.37.17-.73.36-1.09.55s-.72.39-1.06.6a3.68,3.68,0,0,1-3.86,0l-4.12-2.55-8.29,13.37,4.13,2.56a3.71,3.71,0,0,1,1.7,3.51c-.06.76-.09,1.53-.08,2.29a3.77,3.77,0,0,1-1.95,3.44l-4.24,2.27,7.44,13.87,4.24-2.27a3.76,3.76,0,0,1,3.94.27,19.63,19.63,0,0,0,1.95,1.2,3.73,3.73,0,0,1,2,3.36l-.15,4.86,15.72.49.15-4.82a3.74,3.74,0,0,1,2.18-3.25c.36-.16.7-.34,1.05-.52s.68-.38,1-.58a3.74,3.74,0,0,1,3.92,0ZM646,298.24a12.89,12.89,0,1,1,4.54-15A12.88,12.88,0,0,1,646,298.24Z" style="fill:#ebebeb"></path><path d="M571,340.85l9.54-5.51-1.68-2.92a2.62,2.62,0,0,1,.09-2.75,15.55,15.55,0,0,0,.82-1.43,2.63,2.63,0,0,1,2.33-1.45h3.38v-11h-3.38a2.63,2.63,0,0,1-2.33-1.45,15.55,15.55,0,0,0-.82-1.43,2.62,2.62,0,0,1-.09-2.75l1.68-2.92L571,301.71l-1.69,2.94a2.63,2.63,0,0,1-2.43,1.28l-.81,0-.82,0a2.63,2.63,0,0,1-2.42-1.27l-1.7-3-9.54,5.51,1.69,2.93a2.64,2.64,0,0,1-.1,2.75,15.38,15.38,0,0,0-.82,1.42,2.63,2.63,0,0,1-2.33,1.45h-3.38v11h3.38a2.63,2.63,0,0,1,2.33,1.45,15.38,15.38,0,0,0,.82,1.42,2.64,2.64,0,0,1,.1,2.75l-1.69,2.93,9.54,5.51,1.69-2.93a2.63,2.63,0,0,1,2.43-1.28l.82,0,.81,0a2.63,2.63,0,0,1,2.43,1.28Zm-4.93-10.54a9,9,0,1,1,9-9A9,9,0,0,1,566.11,330.31Z" style="fill:#ebebeb"></path><path d="M86.31,102.85a2.62,2.62,0,0,1,1.29,2.43c0,.27,0,.54,0,.81s0,.55,0,.82a2.62,2.62,0,0,1-1.28,2.42L83.39,111l5.51,9.55,2.92-1.69a2.62,2.62,0,0,1,2.75.1,15.38,15.38,0,0,0,1.42.82,2.63,2.63,0,0,1,1.45,2.33v3.37h11v-3.37a2.62,2.62,0,0,1,1.44-2.33,14.17,14.17,0,0,0,1.42-.82,2.62,2.62,0,0,1,2.75-.1l2.93,1.69,5.51-9.55-2.94-1.7a2.6,2.6,0,0,1-1.28-2.42c0-.27,0-.54,0-.81s0-.54,0-.81a2.62,2.62,0,0,1,1.28-2.43l2.94-1.69L117,91.61l-2.92,1.69a2.62,2.62,0,0,1-2.75-.09,15.48,15.48,0,0,0-1.42-.83,2.61,2.61,0,0,1-1.45-2.33V86.68h-11v3.37A2.63,2.63,0,0,1,96,92.38a15.64,15.64,0,0,0-1.43.83,2.6,2.6,0,0,1-2.74.09L88.9,91.61l-5.51,9.55ZM103,97.06a9,9,0,1,1-9,9A9,9,0,0,1,103,97.06Z" style="fill:#ebebeb"></path></g><g id="freepik--chair-2--inject-2"><polygon points="382.28 418.76 494.23 418.76 471.91 288.91 388.19 288.91 382.28 418.76" style="fill:#dbdbdb"></polygon><polygon points="382.28 418.76 392.09 418.76 397.6 288.91 388.19 288.91 382.28 418.76" style="fill:#a6a6a6"></polygon></g><g id="freepik--chair-1--inject-2"><polygon points="369.89 418.76 257.94 418.76 280.26 288.91 363.98 288.91 369.89 418.76" style="fill:#dbdbdb"></polygon><polygon points="369.89 418.76 360.08 418.76 354.57 288.91 363.98 288.91 369.89 418.76" style="fill:#a6a6a6"></polygon></g><g id="freepik--Windows--inject-2"><rect x="531.13" y="215.43" width="103.1" height="65.77" style="fill:#fff"></rect><path d="M634.88,281.85H530.48V214.78h104.4Zm-103.1-1.3H633.57V216.08H531.78Z" style="fill:#ebebeb"></path><rect x="531.13" y="215.43" width="103.1" height="12.44" style="fill:#FF4F5A"></rect><path d="M634.88,228.52H530.48V214.78h104.4Zm-103.1-1.3H633.57V216.08H531.78Z" style="fill:#ebebeb"></path><path d="M542.8,221.74a3.13,3.13,0,1,1-3.13-3.13A3.13,3.13,0,0,1,542.8,221.74Z" style="fill:#a6a6a6"></path><path d="M555.59,221.74a3.13,3.13,0,1,1-3.13-3.13A3.13,3.13,0,0,1,555.59,221.74Z" style="fill:#ebebeb"></path><path d="M568.37,221.74a3.13,3.13,0,1,1-3.13-3.13A3.13,3.13,0,0,1,568.37,221.74Z" style="fill:#fff"></path><path d="M548.92,252.46A12.72,12.72,0,0,1,561.63,240a13,13,0,0,1,8,2.7,2,2,0,0,1,.34,2.77,2,2,0,0,1-2.77.38,8.67,8.67,0,0,0-5.58-1.9,9.18,9.18,0,0,0-6.23,2.49,8.55,8.55,0,0,0-2.53,6,8.43,8.43,0,0,0,2.53,6,9.18,9.18,0,0,0,6.23,2.49,8.74,8.74,0,0,0,5.58-1.9,2.1,2.1,0,0,1,2.77.38,2,2,0,0,1-.34,2.77,13,13,0,0,1-8,2.7A12.68,12.68,0,0,1,548.92,252.46Z" style="fill:#ebebeb"></path><path d="M575.94,258.9a1.81,1.81,0,0,1,2.53-.24,11.31,11.31,0,0,0,6.61,2.67,7.5,7.5,0,0,0,4.34-1.28,3.14,3.14,0,0,0,1.48-2.5,2,2,0,0,0-.31-1.11,3.39,3.39,0,0,0-1-1,14,14,0,0,0-4.74-1.62h-.07a19.34,19.34,0,0,1-4.47-1.35,7.42,7.42,0,0,1-3.22-2.71,5.31,5.31,0,0,1-.8-2.84,6.38,6.38,0,0,1,2.77-5,10.24,10.24,0,0,1,6-1.84c3.32,0,5.78,1.63,7.55,2.77a1.78,1.78,0,0,1,.48,2.46,1.76,1.76,0,0,1-2.46.52c-1.76-1.18-3.46-2.22-5.57-2.22a6.62,6.62,0,0,0-3.88,1.18,2.75,2.75,0,0,0-1.32,2.18,1.68,1.68,0,0,0,.24,1,3.4,3.4,0,0,0,.94.9,11.87,11.87,0,0,0,4.33,1.53h.07a20.15,20.15,0,0,1,4.78,1.45,8.17,8.17,0,0,1,3.46,2.88,5.6,5.6,0,0,1,.83,2.94,6.68,6.68,0,0,1-3,5.37,10.8,10.8,0,0,1-6.41,2,14.93,14.93,0,0,1-8.86-3.47A1.84,1.84,0,0,1,575.94,258.9Z" style="fill:#ebebeb"></path><path d="M598.7,258.9a1.81,1.81,0,0,1,2.53-.24,11.28,11.28,0,0,0,6.61,2.67,7.49,7.49,0,0,0,4.33-1.28,3.13,3.13,0,0,0,1.49-2.5,2,2,0,0,0-.31-1.11,3.39,3.39,0,0,0-1-1,14,14,0,0,0-4.74-1.62h-.07a19.19,19.19,0,0,1-4.47-1.35,7.42,7.42,0,0,1-3.22-2.71,5.31,5.31,0,0,1-.8-2.84,6.38,6.38,0,0,1,2.77-5,10.23,10.23,0,0,1,6-1.84c3.33,0,5.79,1.63,7.55,2.77a1.79,1.79,0,0,1,.49,2.46,1.76,1.76,0,0,1-2.46.52c-1.77-1.18-3.46-2.22-5.58-2.22a6.65,6.65,0,0,0-3.88,1.18,2.76,2.76,0,0,0-1.31,2.18,1.68,1.68,0,0,0,.24,1,3.13,3.13,0,0,0,.94.9,11.74,11.74,0,0,0,4.32,1.53h.07a19.87,19.87,0,0,1,4.78,1.45,8.2,8.2,0,0,1,3.47,2.88,5.6,5.6,0,0,1,.83,2.94,6.71,6.71,0,0,1-3,5.37,10.83,10.83,0,0,1-6.41,2,15,15,0,0,1-8.87-3.47A1.84,1.84,0,0,1,598.7,258.9Z" style="fill:#ebebeb"></path><rect x="96.84" y="222.08" width="103.1" height="65.77" style="fill:#fff"></rect><path d="M200.59,288.5H96.19V221.43h104.4Zm-103.1-1.31h101.8V222.73H97.49Z" style="fill:#ebebeb"></path><rect x="96.84" y="222.08" width="103.1" height="12.44" style="fill:#FF4F5A"></rect><path d="M200.59,235.17H96.19V221.43h104.4Zm-103.1-1.31h101.8V222.73H97.49Z" style="fill:#ebebeb"></path><path d="M108.52,228.39a3.13,3.13,0,1,1-3.13-3.13A3.13,3.13,0,0,1,108.52,228.39Z" style="fill:#a6a6a6"></path><path d="M121.3,228.39a3.13,3.13,0,1,1-3.13-3.13A3.13,3.13,0,0,1,121.3,228.39Z" style="fill:#ebebeb"></path><path d="M134.08,228.39a3.13,3.13,0,1,1-3.13-3.13A3.13,3.13,0,0,1,134.08,228.39Z" style="fill:#fff"></path><path d="M116.09,259.11a12.71,12.71,0,0,1,12.71-12.47,13,13,0,0,1,8,2.7,2,2,0,0,1,.34,2.77,2,2,0,0,1-2.77.38,8.61,8.61,0,0,0-5.58-1.9,9.18,9.18,0,0,0-6.23,2.49,8.53,8.53,0,0,0-2.53,6,8.45,8.45,0,0,0,2.53,6,9.18,9.18,0,0,0,6.23,2.49,8.7,8.7,0,0,0,5.58-1.91,2.1,2.1,0,0,1,2.77.39,2,2,0,0,1-.34,2.77,13,13,0,0,1-8,2.7A12.67,12.67,0,0,1,116.09,259.11Z" style="fill:#ebebeb"></path><path d="M149.31,261.29h-4.92a1.9,1.9,0,0,1-1.91-1.9,1.93,1.93,0,0,1,1.91-1.91h4.92v-4.81a2,2,0,0,1,2-2,2,2,0,0,1,2,2v4.81h4.92a1.92,1.92,0,0,1,1.9,1.91,1.89,1.89,0,0,1-1.9,1.9h-4.92v4.82a2,2,0,0,1-2,2,2,2,0,0,1-2-2Z" style="fill:#ebebeb"></path><path d="M170.78,261.29h-4.92a1.89,1.89,0,0,1-1.9-1.9,1.92,1.92,0,0,1,1.9-1.91h4.92v-4.81a2,2,0,1,1,3.95,0v4.81h4.92a1.93,1.93,0,0,1,1.91,1.91,1.9,1.9,0,0,1-1.91,1.9h-4.92v4.82a2,2,0,0,1-3.95,0Z" style="fill:#ebebeb"></path><rect x="263.36" y="63.99" width="223.81" height="141.2" style="fill:#263238"></rect><path d="M487.82,205.84H262.71V63.34H487.82ZM264,204.54H486.52V64.64H264Z" style="fill:#ebebeb"></path><rect x="263.36" y="63.99" width="223.81" height="12.44" style="fill:#FF4F5A"></rect><path d="M487.82,77.08H262.71V63.34H487.82ZM264,75.77H486.52V64.64H264Z" style="fill:#ebebeb"></path><path d="M275,70.3a3.13,3.13,0,1,1-3.13-3.13A3.13,3.13,0,0,1,275,70.3Z" style="fill:#a6a6a6"></path><path d="M287.82,70.3a3.13,3.13,0,1,1-3.13-3.13A3.13,3.13,0,0,1,287.82,70.3Z" style="fill:#ebebeb"></path><path d="M300.6,70.3a3.13,3.13,0,1,1-3.13-3.13A3.13,3.13,0,0,1,300.6,70.3Z" style="fill:#fff"></path><rect x="276.7" y="101.17" width="6.65" height="2.43" style="fill:#ebebeb"></rect><rect x="288.2" y="101.17" width="107.4" height="2.43" style="fill:#ebebeb"></rect><rect x="399.68" y="101.17" width="12.63" height="2.43" style="fill:#FF4F5A"></rect><rect x="419.9" y="133.67" width="12.63" height="2.43" style="fill:#ebebeb"></rect><rect x="415.06" y="101.17" width="42.58" height="2.43" style="fill:#a6a6a6"></rect><rect x="283.35" y="107.67" width="6.65" height="2.43" style="fill:#ebebeb"></rect><rect x="294.68" y="107.67" width="50.06" height="2.43" style="fill:#a6a6a6"></rect><rect x="397.96" y="133.67" width="18.93" height="2.43" style="fill:#a6a6a6"></rect><rect x="288.2" y="127.17" width="47.81" height="2.43" style="fill:#a6a6a6"></rect><rect x="294.68" y="114.17" width="33.54" height="2.43" style="fill:#FF4F5A"></rect><rect x="408.13" y="120.67" width="33.54" height="2.43" style="fill:#a6a6a6"></rect><rect x="331.95" y="114.17" width="84.68" height="2.43" style="fill:#a6a6a6"></rect><rect x="288.2" y="133.67" width="105.43" height="2.43" style="fill:#FF4F5A"></rect><rect x="413.65" y="107.67" width="55.4" height="2.43" style="fill:#FF4F5A"></rect><rect x="347.88" y="107.67" width="63.02" height="2.43" style="fill:#ebebeb"></rect><rect x="439.9" y="114.17" width="21.53" height="2.43" style="fill:#ebebeb"></rect><rect x="283.35" y="114.17" width="6.65" height="2.43" style="fill:#ebebeb"></rect><rect x="276.7" y="120.67" width="6.65" height="2.43" style="fill:#a6a6a6"></rect><rect x="288.2" y="120.67" width="39.3" height="2.43" style="fill:#ebebeb"></rect><rect x="294.68" y="140.17" width="39.3" height="2.43" style="fill:#ebebeb"></rect><rect x="399.08" y="146.67" width="50.62" height="2.43" style="fill:#FF4F5A"></rect><rect x="337.17" y="140.17" width="70.53" height="2.43" style="fill:#FF4F5A"></rect><rect x="330.22" y="146.67" width="65.43" height="2.43" style="fill:#ebebeb"></rect><rect x="294.68" y="146.67" width="11.38" height="2.43" style="fill:#a6a6a6"></rect><rect x="338.72" y="127.17" width="73.6" height="2.43" style="fill:#ebebeb"></rect><rect x="415.06" y="127.17" width="47.77" height="2.43" style="fill:#FF4F5A"></rect><rect x="331.49" y="120.67" width="73.54" height="2.43" style="fill:#FF4F5A"></rect><rect x="276.7" y="127.17" width="6.65" height="2.43" style="fill:#ebebeb"></rect><rect x="276.7" y="133.67" width="6.65" height="2.43" style="fill:#ebebeb"></rect><rect x="283.35" y="140.17" width="6.65" height="2.43" style="fill:#a6a6a6"></rect><rect x="283.35" y="146.67" width="6.65" height="2.43" style="fill:#ebebeb"></rect><rect x="276.7" y="152.11" width="6.65" height="2.43" style="fill:#ebebeb"></rect><rect x="288.2" y="152.11" width="77.97" height="2.43" style="fill:#ebebeb"></rect><rect x="283.35" y="158.61" width="6.65" height="2.43" style="fill:#ebebeb"></rect><rect x="294.68" y="158.61" width="50.06" height="2.43" style="fill:#a6a6a6"></rect><rect x="288.2" y="178.12" width="47.81" height="2.43" style="fill:#a6a6a6"></rect><rect x="294.68" y="165.11" width="33.54" height="2.43" style="fill:#FF4F5A"></rect><rect x="331.95" y="165.11" width="84.68" height="2.43" style="fill:#a6a6a6"></rect><rect x="288.2" y="184.62" width="105.43" height="2.43" style="fill:#FF4F5A"></rect><rect x="413.65" y="158.61" width="55.4" height="2.43" style="fill:#FF4F5A"></rect><rect x="347.88" y="158.61" width="63.02" height="2.43" style="fill:#ebebeb"></rect><rect x="439.9" y="165.11" width="21.53" height="2.43" style="fill:#ebebeb"></rect><rect x="283.35" y="165.11" width="6.65" height="2.43" style="fill:#ebebeb"></rect><rect x="276.7" y="171.62" width="6.65" height="2.43" style="fill:#a6a6a6"></rect><rect x="288.2" y="171.62" width="39.3" height="2.43" style="fill:#ebebeb"></rect><rect x="338.72" y="178.12" width="73.6" height="2.43" style="fill:#ebebeb"></rect><rect x="331.49" y="171.62" width="73.54" height="2.43" style="fill:#FF4F5A"></rect><rect x="276.7" y="178.12" width="6.65" height="2.43" style="fill:#ebebeb"></rect><path d="M280.81,94.77a.58.58,0,0,1-.4,1,.63.63,0,0,1-.42-.17L277.43,93a.08.08,0,0,1-.05,0l0,0a.64.64,0,0,0,0-.07.05.05,0,0,1,0,0s0,0,0-.06,0,0,0,0v-.07a.2.2,0,0,1,0,0s0,0,0,0v-.06s0,0,0,0a.64.64,0,0,0,0-.07s0,0,0,0l0-.08a0,0,0,0,1,0,0,.17.17,0,0,1,.06-.06l2.56-2.6a.59.59,0,0,1,.82,0,.57.57,0,0,1,0,.82l-2.16,2.18Z" style="fill:#FF4F5A"></path><path d="M283.14,95.06l2.23-5.32a.51.51,0,0,1,.67-.26.49.49,0,0,1,.25.65l-2.23,5.33a.51.51,0,0,1-.47.3.42.42,0,0,1-.18,0A.5.5,0,0,1,283.14,95.06Z" style="fill:#FF4F5A"></path><path d="M290.71,92.92a0,0,0,0,1,0,0l-.06.06-2.57,2.6a.58.58,0,0,1-.41.17.6.6,0,0,1-.41-.17.57.57,0,0,1,0-.82l2.16-2.18-2.16-2.18a.57.57,0,0,1,0-.82.59.59,0,0,1,.82,0l2.57,2.6.06.06s0,0,0,0,0,0,.05.08,0,0,0,0a.12.12,0,0,0,0,.08s0,0,0,0v.06s0,0,0,0,0,0,0,0v.07s0,0,0,0a.13.13,0,0,0,0,.08s0,0,0,0Z" style="fill:#FF4F5A"></path><rect x="476.53" y="169.54" width="70.23" height="26" style="fill:#455a64"></rect><path d="M486.67,187.93V176.4a1.06,1.06,0,0,1,1.07-1.08,1.08,1.08,0,0,1,1.1,1.08v4.69h5.06V176.4a1.06,1.06,0,0,1,1.08-1.08,1.08,1.08,0,0,1,1.09,1.08v11.53A1.08,1.08,0,0,1,495,189a1.06,1.06,0,0,1-1.08-1.08v-4.69h-5.06v4.69a1.08,1.08,0,0,1-1.1,1.08A1.06,1.06,0,0,1,486.67,187.93Z" style="fill:#fff"></path><path d="M508.89,177.49h-3.1v10.44a1.08,1.08,0,1,1-2.15,0V177.49h-3.09a1.08,1.08,0,0,1-1.08-1.09,1.06,1.06,0,0,1,1.08-1.08h8.34A1.08,1.08,0,0,1,510,176.4,1.1,1.1,0,0,1,508.89,177.49Z" style="fill:#fff"></path><path d="M525,176.4v11.53a1.1,1.1,0,0,1-1.09,1.08,1.08,1.08,0,0,1-1.08-1.08V179.7L520,183.61a1.09,1.09,0,0,1-.88.45h0a1.11,1.11,0,0,1-.9-.45l-2.8-3.91v8.23a1.09,1.09,0,0,1-2.17,0V176.4a1.09,1.09,0,0,1,1.08-1.08h.06a1.08,1.08,0,0,1,.86.45l3.89,5.4,3.89-5.4a1.07,1.07,0,0,1,.88-.45h0A1.12,1.12,0,0,1,525,176.4Z" style="fill:#fff"></path><path d="M529.69,187.93V176.4a1.08,1.08,0,0,1,1.08-1.08,1.09,1.09,0,0,1,1.09,1.08v10.44h5.3a1.09,1.09,0,0,1,0,2.17h-6.39A1.08,1.08,0,0,1,529.69,187.93Z" style="fill:#fff"></path><rect x="172.38" y="178.46" width="57.88" height="26" style="fill:#455a64"></rect><path d="M189.6,192.62h-2.4v4.24a1.09,1.09,0,0,1-1.1,1.08,1.08,1.08,0,0,1-1.07-1.08V185.33a1.07,1.07,0,0,1,1.07-1.08h3.5a4.19,4.19,0,1,1,0,8.37Zm-2.4-2.17h2.4a2,2,0,1,0,0-4h-2.4Z" style="fill:#fff"></path><path d="M196.42,196.86V185.33a1.06,1.06,0,0,1,1.08-1.08,1.08,1.08,0,0,1,1.09,1.08V190h5.06v-4.69a1.06,1.06,0,0,1,1.08-1.08,1.08,1.08,0,0,1,1.1,1.08v11.53a1.08,1.08,0,0,1-1.1,1.08,1.06,1.06,0,0,1-1.08-1.08v-4.69h-5.06v4.69a1.08,1.08,0,0,1-1.09,1.08A1.06,1.06,0,0,1,196.42,196.86Z" style="fill:#fff"></path><path d="M214.86,192.62h-2.41v4.24a1.09,1.09,0,0,1-2.17,0V185.33a1.08,1.08,0,0,1,1.08-1.08h3.5a4.19,4.19,0,1,1,0,8.37Zm-2.41-2.17h2.41a2,2,0,1,0,0-4h-2.41Z" style="fill:#fff"></path><polygon points="602.85 292.35 607.24 302.95 602.86 304.77 598.44 294.09 591.19 299.72 591.19 269.84 612.11 290.97 602.85 292.35" style="fill:#263238"></polygon><path d="M591.19,266.59a4.25,4.25,0,0,1-.26-1.51,4,4,0,0,1,.26-1.5,3.78,3.78,0,0,1,.27,1.5A4.05,4.05,0,0,1,591.19,266.59Z" style="fill:#263238"></path><path d="M588.61,267.66a4,4,0,0,1-1.25-.88,3.91,3.91,0,0,1-.88-1.25,4.47,4.47,0,0,1,2.13,2.13Z" style="fill:#263238"></path><path d="M587.54,270.24a4,4,0,0,1-1.51.27,4,4,0,0,1-1.5-.27A4,4,0,0,1,586,270,4,4,0,0,1,587.54,270.24Z" style="fill:#263238"></path><path d="M588.61,272.83a4,4,0,0,1-.88,1.25,3.74,3.74,0,0,1-1.25.87,3.87,3.87,0,0,1,.88-1.24A4,4,0,0,1,588.61,272.83Z" style="fill:#263238"></path><path d="M594.85,270.24a4.49,4.49,0,0,1,3,0,4.33,4.33,0,0,1-3,0Z" style="fill:#263238"></path><path d="M593.78,267.66a4.47,4.47,0,0,1,2.13-2.13,3.91,3.91,0,0,1-.88,1.25A4,4,0,0,1,593.78,267.66Z" style="fill:#263238"></path></g><g id="freepik--character-2--inject-2"><path d="M444.34,228.86c-13.77,11.81-9.94,29-15.69,38.36-3.51,5.7-15,11.73-17.24,18.31-3.74,10.81,5.42,14.69,3.37,20.57-2.9,8.32-14,7.68-16,21.29s13,28.11,48.53,32,55.09-9.1,56.37-20.65-10.56-15.4-11.36-24c-.52-5.51,6.79-9.35,7.16-19.49s-9.52-13.45-10.94-22.07,3.15-29.55-9.51-40.24S451.13,223,444.34,228.86Z" style="fill:#263238"></path><path d="M445.93,229.17a29.33,29.33,0,0,0-9.14,10.55,64.17,64.17,0,0,0-5.08,14,38.75,38.75,0,0,1-2.76,8.37,21.43,21.43,0,0,1-4.78,5.9c-3.84,3.47-8.43,6.12-11.89,10-3.27,3.7-5.82,8.65-4.51,13.7.71,2.74,2.52,5,3.65,7.54s1.49,5.45-.59,7.46c-1.78,1.72-4.36,2.51-6.38,3.93a22.32,22.32,0,0,0-5.19,5A17.39,17.39,0,0,0,396,329.32c2.09,11.06,12.47,17.35,22.05,21.32q2,.83,4,1.62c.21.08.39-.22.18-.31-9.62-4.3-20.78-9.35-24.47-20.1a16.21,16.21,0,0,1,1.66-14.28,20.44,20.44,0,0,1,5.07-5.34c1.94-1.43,4.17-2.31,6.14-3.66a6.54,6.54,0,0,0,3-5.85c-.12-2.59-1.39-4.86-2.64-7.07s-2.46-4.69-2.27-7.45a14.26,14.26,0,0,1,2.84-7.1c3-4.24,7.43-7,11.4-10.23s7.19-6.95,8.65-12c.74-2.54,1.2-5.15,1.83-7.71a69.29,69.29,0,0,1,2.12-7,33.64,33.64,0,0,1,7.52-12.39,19.44,19.44,0,0,1,2.94-2.41C446.17,229.28,446.05,229.09,445.93,229.17Z" style="fill:#263238"></path><path d="M505.21,330.3a13.33,13.33,0,0,0-2.46-5.18c-1.24-1.57-2.73-2.89-4.1-4.33a10.12,10.12,0,0,1-2.91-4.81c-.46-2.27.5-4.45,1.56-6.4a48.38,48.38,0,0,0,3.19-6.2,22.42,22.42,0,0,0,1.35-6.63,22.83,22.83,0,0,0-3.58-13.22c-1.21-2-2.57-3.88-3.8-5.85a28.39,28.39,0,0,1-3.15-6.91c-1.6-5.35-1.95-11-3.26-16.43a84.62,84.62,0,0,0-5.77-16.12c-.06-.13-.25,0-.19.11a74.35,74.35,0,0,1,5.05,14.57c1.13,4.76,1.56,9.61,2.4,14.42a36.25,36.25,0,0,0,1.81,6.93,37.58,37.58,0,0,0,3.08,5.94c2.41,3.92,4.89,7.78,5.55,12.43a21.7,21.7,0,0,1-2.29,13.31c-1.87,3.54-4.49,7.43-2.86,11.57,1.39,3.51,4.73,5.61,6.95,8.51a14,14,0,0,1,2.4,11.24c-1.91,10-11.89,14.9-21.23,15.39a.23.23,0,0,0,0,.45c8.12-.09,17-3.66,20.77-11.27A17.22,17.22,0,0,0,505.21,330.3Z" style="fill:#263238"></path><path d="M456.64,318.68c9,35.77,17.91,63.14,28.11,69.83,8.22,5.41,19.77,9.2,31.65,11.86a295.55,295.55,0,0,0,38.5,5.5c4,.33,7.3.54,9.66.71,5.82.37,15.36-38.09,11.23-42.79-.95-1.07-4.79-1.9-10.17-2.58-18.13-2.28-53.82-2.81-55.95-4.84s-20.41-27.6-36-47.62C462.89,294.91,451.65,298.84,456.64,318.68Z" style="fill:#d3766a"></path><path d="M552.87,402.7c.73.33,11,4.8,17.32,6.38,4.72,1.18,18.37,4.21,20.18-.85,1.24-3.45-6.58-6.18-12.06-8.23-2.89-1.08-6.51-3.93-5.74-5.79,1.35-3.25,8.8-.31,13.72,2.31,9.51,5.07,22.28,14.36,27.8,9.42,2.09-1.86-.53-5-4.3-8.08,6.06,3.5,12.5,6.32,14.9,4.33,1.37-1.12,1.38-2.61.53-4.26,1.86.52,3.47.35,4.55-.89,1.86-2.08.81-5-1.41-8a2.28,2.28,0,0,0,1.7-1.22c3.86-6.37-17.23-23.49-24.36-24.9-21-4.17-43-1.56-43-1.56C554.76,368.19,552.86,402.68,552.87,402.7Z" style="fill:#d3766a"></path><path d="M582.73,382.19A33.93,33.93,0,0,1,596.79,387c5,3.15,9,7.56,13.62,11.16.12.1,0,.29-.16.19-2.18-1.87-4.56-3.53-6.82-5.31s-4.36-3.57-6.68-5.15a33.65,33.65,0,0,0-14-5.64C582.66,382.27,582.67,382.18,582.73,382.19Z" style="fill:#263238"></path><path d="M586.27,373.23c5.52,1.29,11.18,2.59,16.34,5,5.66,2.62,10.17,7.07,14.6,11.35q4,3.85,7.82,7.89c.1.11,0,.3-.16.19Q618.12,391,611,384.79a44.43,44.43,0,0,0-15.05-8.73c-3.17-1.08-6.42-1.91-9.66-2.74C586.2,373.31,586.21,373.21,586.27,373.23Z" style="fill:#263238"></path><path d="M591.83,365.3c5.35.89,10,1.65,14.82,4.32,6.36,3.54,12.6,9.66,14.79,11.83,2.42,2.4,4.76,4.88,7.06,7.39.09.11-.09.27-.18.17a177.75,177.75,0,0,0-16.79-15.44,34.9,34.9,0,0,0-9.27-5.55,63.24,63.24,0,0,0-10.44-2.69A0,0,0,1,1,591.83,365.3Z" style="fill:#263238"></path><path d="M463.24,354.73l32.14-19s-13.72-22.16-25.44-32.63-16.45-2.25-14.67,13S463.24,354.73,463.24,354.73Z" style="fill:#FF4F5A"></path><path d="M490.32,331c-5.15,2.64-18.9,10.2-27.16,16.34-.05,0,.07.26.12.23,7.67-4,22.33-13.16,27.22-16.25C490.6,331.23,490.42,330.91,490.32,331Z" style="fill:#263238"></path><path d="M492.74,337.35l-29.49,17.38s-6.2-23.42-8-38.63c-1.14-9.81.41-16.71,4.82-17.55Z" style="fill:#263238"></path><path d="M494.29,418.64H388s23.08-89.14,44.45-114.23c.48-.58,1-1.13,1.46-1.64l.29-.3a22.81,22.81,0,0,1,5.71-4.42c.38-.2.75-.39,1.14-.56,8.23-3.78,16.92-.65,23.19,4.72,2,1.7,24.51,31,26.51,42.18,1.72,9.87-4.94,20.46-4.94,20.46Z" style="fill:#FF4F5A"></path><path d="M469.88,361a92.29,92.29,0,0,0-13.42,2.32c-2.19.58-4.33,1.26-6.47,2-1.07.36-2.14.68-3.22,1a14.64,14.64,0,0,1-3.46.69c-.1,0-.1.16,0,.16a24.65,24.65,0,0,0,3.33-.09,23.22,23.22,0,0,0,3.18-.63c2.22-.57,4.41-1.24,6.63-1.83,4.47-1.19,8.93-2.38,13.48-3.24C470.15,361.37,470.09,361,469.88,361Z" style="fill:#263238"></path><path d="M481.1,365a97.89,97.89,0,0,0-11.23-.44c-1.88,0-3.74.18-5.6.38q-1.35.15-2.67.33c-1,.13-1.94.39-2.92.51a.09.09,0,0,0,0,.17c.92-.09,1.87,0,2.8,0l2.8-.1c1.87-.06,3.74-.1,5.61-.18,3.74-.16,7.47-.28,11.21-.31C481.31,365.26,481.3,365,481.1,365Z" style="fill:#263238"></path><path d="M426.4,309.58c-20,28.15-45.95,77-32.61,86,21.95,14.76,82.34,18.73,96.14,19.08,5.95.15,14.09-39.46,9.69-44.06s-67.62-2.15-68.43-6c-.46-2.16,7.28-22.12,11.2-46.06C446.92,290.93,432,301.64,426.4,309.58Z" style="fill:#d3766a"></path><path d="M489,368.36s18-1.85,29.88-2.51c6.61-.36,18,0,23,2,7.45,2.92,36.73,19.89,32.77,27.08-3.59,6.51-26.89-11.27-26.89-11.27s25.1,15.86,19.34,22.9S537.67,390,537.67,390,563.1,406.86,556,413.18c-5.35,4.78-28-15.37-28-15.37s21.76,14.65,16.46,19.8c-5.85,5.69-27.91-11.6-27.91-11.6-15.67,10.83-27.56,9.57-35.91,7.67C478.64,413.22,489,368.36,489,368.36Z" style="fill:#d3766a"></path><path d="M539.41,377.59c3,1.76,6.09,3.52,8.94,5.53s5.63,4.14,8.28,6.41a59.36,59.36,0,0,1,9.46,9.83c-5.38-6.08-15.47-13.46-18.32-15.47s-5.59-4.17-8.44-6.19C539.26,377.65,539.34,377.55,539.41,377.59Z" style="fill:#263238"></path><path d="M531.94,387.75c3.76,2.41,7.57,4.66,11.22,7.24s8.6,6.33,12.05,9.13c.26.22.06.69-.21.48-3.56-2.66-8.8-6.27-12.39-8.89s-7.07-5.39-10.73-7.87C531.82,387.8,531.88,387.72,531.94,387.75Z" style="fill:#263238"></path><path d="M524,395.32c5.93,3.38,11.22,7.86,16.31,12.38.25.22,0,.28-.29.07-5.35-4.22-9.51-7.56-16.14-12.25C523.74,395.45,523.84,395.25,524,395.32Z" style="fill:#263238"></path><path d="M486.42,368c8.23-.84,32.4-3.2,40.67-3.35,7.29-.13,13.46.86,19.94,4.32,13.91,7.4,23.3,16.76,25.68,19.59,1.45,1.71,3.57,4.45,2.08,6.64-1.82,2.67-9.64,1-18.33-5.5-.32-.24-.15-.42.17-.21,12.1,8,16.48,6.57,17.5,4.9.66-1.09-.23-2.76-1-4a25.53,25.53,0,0,0-4.49-4.91,111.1,111.1,0,0,0-18.42-13.29,43.72,43.72,0,0,0-23.55-6.38c-8.47.11-31.74,2.55-40.21,2.53C486.24,368.35,486.24,368.06,486.42,368Z" style="fill:#263238"></path><path d="M568.09,402.79c-.68-2.21-2.5-4.1-4-5.84a41.9,41.9,0,0,0-5.95-6,.1.1,0,0,0-.14.14,65.88,65.88,0,0,1,5.3,5.78,33.83,33.83,0,0,1,2.44,3.51c.72,1.16,1.55,2.52,1.37,3.95-.33,2.73-3.73,3-5.81,2.45a23.12,23.12,0,0,1-3.92-1.46,37.81,37.81,0,0,1-4.92-3c-.13-.1-.45,0-.31.08,3.27,2.58,9.51,8,13.93,5.35A4.2,4.2,0,0,0,568.09,402.79Z" style="fill:#263238"></path><path d="M401.46,338.91l35.1,12.64s8.31-24.7,8.88-40.41-8.76-14.1-19.33-3S401.46,338.91,401.46,338.91Z" style="fill:#FF4F5A"></path><path d="M437,344.58c-5.31-2.28-19.91-8-29.92-10.48-.06,0-.14.21-.09.24,8,3.34,24.38,8.79,29.88,10.59C437,345,437.14,344.62,437,344.58Z" style="fill:#263238"></path><path d="M443.83,331.28s-.07-.08-.09,0c-.63,1.21-1.19,2.44-1.73,3.69.61-2.74,1.16-5.5,1.64-8.25a.08.08,0,1,0-.15,0c-2.35,8.09-4.91,16.14-7.09,24.29-.9-.05-1.8-.11-2.69-.23a.12.12,0,0,0,0,.24c1,.23,1.92.54,2.86.86.22.07.52.05.61-.2a119.09,119.09,0,0,0,4.28-14.16c.37-.73.73-1.46,1-2.22A28.91,28.91,0,0,0,443.83,331.28Z" style="fill:#263238"></path><path d="M450.21,294.21c-8,1.47-8,10.28-5.76,16.69s7.29,14.09,11.47,14.29,6-10.16,6-10.16,5.28,7.07,8.6,5.12-1.72-14.48-5.78-18.62C458.83,295.52,454.44,293.43,450.21,294.21Z" style="fill:#fff"></path><path d="M445.47,298.73c.17,1.9,7.23,15.09,15.69,15.9,2.76.26,4.84-14.72,4.84-14.72l.41-1.07,5.68-15-16.51-14.28-2.41-1.93s-1.28,4.21-2.83,9.46c-.08.24-.15.48-.22.74s-.19.58-.27.86c-.24.78-.48,1.58-.71,2.38-.17.6-.34,1.2-.5,1.84s-.34,1.27-.51,1.92A102,102,0,0,0,445.47,298.73Z" style="fill:#d3766a"></path><path d="M450.34,277.11a32.13,32.13,0,0,0,16.07,21.73l5.68-15-16.51-14.28-2.41-1.93S451.89,271.86,450.34,277.11Z" style="fill:#263238"></path><path d="M496.72,262.13c-1.45,28.1-18.44,30.4-24.5,30.08-5.49-.29-24.18-2-25.64-30.07s12.06-36.3,24.67-36.3S498.17,234,496.72,262.13Z" style="fill:#d3766a"></path><path d="M493,257.08c-.65-.13-1.23-.35-1.87-.54a3.16,3.16,0,0,1-1.79-.92,1,1,0,0,1,.09-1.22,2.48,2.48,0,0,1,2.48-.39,3.66,3.66,0,0,1,2.19,1.45A1.07,1.07,0,0,1,493,257.08Z" style="fill:#263238"></path><path d="M475,255.88c.66,0,1.27-.17,1.92-.26a3.19,3.19,0,0,0,1.92-.64,1,1,0,0,0,.08-1.22,2.47,2.47,0,0,0-2.39-.76,3.65,3.65,0,0,0-2.38,1.12A1.07,1.07,0,0,0,475,255.88Z" style="fill:#263238"></path><path d="M477.89,262.83c0-.08-.15.08-.15.16,0,1.92-.4,4.1-2.16,4.65-.06,0-.06.12,0,.11C477.71,267.56,478.17,264.65,477.89,262.83Z" style="fill:#263238"></path><path d="M476.29,260.74c-3.07-.38-3.62,5.77-.78,6.13S478.86,261.07,476.29,260.74Z" style="fill:#263238"></path><path d="M475.05,261c-.57.3-1.15.87-1.81.88s-1.26-.69-1.7-1.36c0-.07-.1,0-.11.06-.12,1.18.22,2.43,1.47,2.72s2.06-.7,2.46-1.86C475.44,261.18,475.28,260.84,475.05,261Z" style="fill:#263238"></path><path d="M488.35,263.36c0-.07.15.1.14.18-.25,1.9-.21,4.12,1.45,4.92.05,0,0,.12,0,.11C487.84,268.06,487.82,265.12,488.35,263.36Z" style="fill:#263238"></path><path d="M490.25,261.53c3.09.07,2.73,6.24-.13,6.18S487.66,261.48,490.25,261.53Z" style="fill:#263238"></path><path d="M491.51,262c.47.36.92,1,1.5,1.05s1.21-.55,1.68-1.17c.05-.06.1,0,.09.08,0,1.18-.49,2.38-1.64,2.54s-1.75-.91-2-2.1C491.14,262.19,491.33,261.87,491.51,262Z" style="fill:#263238"></path><path d="M476.47,277.53c.4.51.77,1.18,1.45,1.33a5,5,0,0,0,2.1-.2c.07,0,.12.06.07.11a2.57,2.57,0,0,1-2.55.7,2,2,0,0,1-1.26-1.88C476.26,277.48,476.42,277.46,476.47,277.53Z" style="fill:#263238"></path><path d="M484.61,272.17s.18,2.88.07,4.23c0,.12-5,.75-6.88-2.72a.15.15,0,0,1,.22-.18,9.66,9.66,0,0,0,5.71,2.13c.12-.36-.46-4.93-.25-4.93a12.07,12.07,0,0,1,3,.93c-.18-6-1.33-11.95-1.42-17.94a.18.18,0,0,1,.35-.06c1.65,6.14,2,13.05,2.36,19.26C487.83,273.67,485.13,272.44,484.61,272.17Z" style="fill:#263238"></path><path d="M448.6,263.28c6.87.67,11.64-20.1,12.19-22.66-.26,1.63-1.65,10.26-1,10.69a7,7,0,0,0,2.2-.12h0a20.14,20.14,0,0,1,.66-3.07c.12-.47,0,1.07.05,3,.41-.05.84-.13,1.31-.18a25.37,25.37,0,0,1,1.53-6.5c.3-.79,0,2.92.4,6.24,4.89-.65,11.92-1.42,18.33-.79,1.71.16,3.18.37,4.48.61.34-2.56.41-5.32.52-4.71a24.35,24.35,0,0,1,.44,4.89c.7.14,1.35.27,1.93.41.65-3.59-.31-9.58.16-8.62a25.78,25.78,0,0,1,2.31,9.35c2.4.8,3,1.37,3.17.74.27-1.13.19-11.42-6.7-19.87-7.49-9.18-24.28-13.46-35.54-2.33,0,0-8.6,4.13-10.95,12.29S444.62,262.9,448.6,263.28Z" style="fill:#263238"></path><path d="M451.13,262.44s-4.87-9.55-9.12-7.93-1.42,14.87,3,17.23a4.76,4.76,0,0,0,6.67-1.65Z" style="fill:#d3766a"></path><path d="M442.92,258.29c-.08,0-.11.08,0,.12,3.06,1.77,4.35,5,5.12,8.31-.8-1.34-2-2.18-3.8-1.26-.09.05,0,.2.07.19a2.92,2.92,0,0,1,3.05,1.46,14.3,14.3,0,0,1,1.17,2.79c.11.31.65.23.59-.12,0,0,0-.06,0-.08C449.72,265.57,447.31,259.32,442.92,258.29Z" style="fill:#263238"></path></g><g id="freepik--character-1--inject-2"><path d="M288.87,306.82c-7.12,31-21.55,70.33-32.69,78.26-9,6.39-56.16,17.66-58.79,17.94-6.51.66-19.37-45.34-12.62-47.21,8.51-2.35,48.93-3.61,51.23-6s17.09-22.39,33.74-45.46C281.24,288.43,293.3,287.56,288.87,306.82Z" style="fill:#ad6359"></path><path d="M202.62,400.49c-.78.4-11.79,5.93-18.6,7.91-5.08,1.47-19.82,5.32-22-.11-1.49-3.71,6.91-7,12.8-9.44,3.1-1.3,6.92-4.54,6-6.54-1.6-3.48-9.59,0-14.84,3.07-10.15,5.9-23.68,16.52-29.89,11.37-2.34-1.95.38-5.5,4.37-9-6.47,4.05-13.36,7.37-16,5.31-1.54-1.17-1.61-2.78-.75-4.62-2,.65-3.76.52-5-.78-2.1-2.2-1.08-5.44,1.22-8.77a2.51,2.51,0,0,1-1.91-1.25c-4.45-6.79,17.82-26.26,25.52-28.08,22.66-5.39,46.76-3.43,46.76-3.43C199.18,363.27,202.64,400.48,202.62,400.49Z" style="fill:#ad6359"></path><path d="M169.3,379.64a38.45,38.45,0,0,0-15.11,5.81c-5.74,3.79-9.56,8.23-14.37,12.7-.13.12.05.32.17.2,2.3-2.12,11.82-10.11,14.27-11.93a36.64,36.64,0,0,1,15.06-6.69C169.38,379.72,169.36,379.63,169.3,379.64Z" style="fill:#263238"></path><path d="M165.08,370c-6,1.63-12.06,3.28-17.58,6.09-6.05,3.08-10.79,8.11-15.44,12.95-2.79,2.9-5.53,5.86-8.19,8.89-.11.13.06.33.18.2q7.08-7.48,14.61-14.55a48.51,48.51,0,0,1,16-10.11c3.41-1.3,6.91-2.33,10.4-3.36C165.17,370.11,165.15,370,165.08,370Z" style="fill:#263238"></path><path d="M158.72,361.61c-5.79,1.19-10.84,2.21-16,5.31-6.78,4.1-13.33,11-15.63,13.47-2.53,2.71-5,5.5-7.38,8.33-.1.11.1.28.2.17a192.84,192.84,0,0,1,17.65-17.48,38.44,38.44,0,0,1,9.87-6.42,68.71,68.71,0,0,1,11.26-3.34S158.74,361.61,158.72,361.61Z" style="fill:#263238"></path><path d="M236.34,345.32l43.47-1.85s7.9-21.54,10.8-40.66-13.39-12.26-29.52,8.34S236.34,345.32,236.34,345.32Z" style="fill:#a6a6a6"></path><path d="M281.3,334c-9.4-.24-18.84.17-28.24.78-2.65.17-5.31.4-8,.69-.07,0-.08.12,0,.12,4.69,0,9.39-.15,14.09-.29s9.43-.33,14.13-.61c2.66-.15,5.32-.3,8-.52C281.4,334.21,281.41,334,281.3,334Z" style="fill:#263238"></path><path d="M267.55,306a1.65,1.65,0,0,1-.69.34,1.39,1.39,0,0,1-1.29-.39l-.07-.06-.48.55,0,0a1.81,1.81,0,0,0,2,.41,1.57,1.57,0,0,0,.77-.63,7.66,7.66,0,0,0,.5-.76C268,305.62,267.8,305.81,267.55,306Zm9.58,33.92c-.06-.3-.09-.59-.18-.89-.08.3-.12.59-.17.89a2.21,2.21,0,0,1-.23.75,1.36,1.36,0,0,1-1.15.67,1.83,1.83,0,0,0-1.69,1.1,1.76,1.76,0,0,0-.1,1l.06.32h.24c0-.1,0-.21,0-.31a2,2,0,0,1,.25-.74,1.42,1.42,0,0,1,1.2-.63,1.83,1.83,0,0,0,1.66-1.16A1.89,1.89,0,0,0,277.13,339.89Zm-11.72-17.48c-.07-.29-.11-.59-.19-.88-.07.29-.11.59-.18.88a1.84,1.84,0,0,1-.21.75,1.39,1.39,0,0,1-1.17.67,1.83,1.83,0,0,0-1.68,1.11,1.81,1.81,0,0,0-.1,1c.06.29.1.59.19.88.08-.29.11-.59.17-.88a1.62,1.62,0,0,1,.25-.73,1.38,1.38,0,0,1,1.19-.64,1.79,1.79,0,0,0,1.73-2.15ZM257.6,340a1.58,1.58,0,0,1-.68.37,1.38,1.38,0,0,1-1.3-.34,1.81,1.81,0,0,0-2-.42,1.88,1.88,0,0,0-.77.64c-.16.26-.35.48-.49.75.27-.15.49-.33.74-.49a1.71,1.71,0,0,1,.7-.35,1.4,1.4,0,0,1,1.29.4,1.81,1.81,0,0,0,2,.34,1.7,1.7,0,0,0,.73-.64c.17-.26.36-.49.51-.76C258.09,339.69,257.85,339.86,257.6,340Zm23.45-13.22a1.8,1.8,0,0,1-.68.38,1.35,1.35,0,0,1-1.29-.35,1.83,1.83,0,0,0-2-.4,1.66,1.66,0,0,0-.77.63c-.17.25-.34.48-.5.75.27-.15.51-.33.76-.5a1.61,1.61,0,0,1,.68-.34,1.38,1.38,0,0,1,1.3.39,1.78,1.78,0,0,0,2,.34,1.76,1.76,0,0,0,.75-.64c.17-.25.35-.49.5-.76C281.54,326.47,281.31,326.65,281.05,326.81Zm2.42-14.13a1.41,1.41,0,0,1-.73-.25,1.37,1.37,0,0,1-.64-1.18,1.76,1.76,0,0,0-2.15-1.72,6.87,6.87,0,0,0-.88.18c.29.08.59.11.88.17a1.7,1.7,0,0,1,.75.23,1.38,1.38,0,0,1,.67,1.15,1.84,1.84,0,0,0,1.11,1.69,1.8,1.8,0,0,0,1,.1c.29-.07.59-.11.88-.19C284.06,312.78,283.76,312.75,283.47,312.68Zm-35.13,19.17a1.62,1.62,0,0,1-.73-.25,1.35,1.35,0,0,1-.63-1.19,1.25,1.25,0,0,0-.07-.43l-.61.85h0a1.76,1.76,0,0,0,1.06,1.27,1.6,1.6,0,0,0,1,.1c.3-.07.59-.1.89-.18C248.93,332,248.64,331.92,248.34,331.85Zm33.28-39.23c0,.13,0,.27.07.4a1.79,1.79,0,0,1-.06,1,1.81,1.81,0,0,1-1.66,1.16,1.41,1.41,0,0,0-1.19.63,1.54,1.54,0,0,0-.24.74c-.06.29-.1.59-.19.88-.08-.29-.11-.59-.17-.88a1.71,1.71,0,0,1,.09-1,1.8,1.8,0,0,1,1.69-1.1,1.36,1.36,0,0,0,1.15-.68,1.55,1.55,0,0,0,.23-.75,2.68,2.68,0,0,0,.05-.3Z" style="fill:#dbdbdb"></path><path d="M247.34,418.76h111c1.22-2.25-17-99.44-54.38-126.8-8.3-6.07-23-2.17-27.13,3.73C256.19,325.37,247.34,418.76,247.34,418.76Z" style="fill:#a6a6a6"></path><path d="M294.39,336.29c.3-.08.59-.12.89-.18a1.76,1.76,0,0,1,1,.07,1.8,1.8,0,0,1,1.17,1.65,1.39,1.39,0,0,0,.63,1.19,1.59,1.59,0,0,0,.74.25c.29.06.59.1.88.18-.29.08-.59.12-.88.18a1.71,1.71,0,0,1-1-.1,1.83,1.83,0,0,1-1.11-1.68,1.4,1.4,0,0,0-.67-1.16,1.7,1.7,0,0,0-.75-.22C295,336.41,294.69,336.37,294.39,336.29ZM311.63,395a1.84,1.84,0,0,1,.75.23,1.36,1.36,0,0,1,.67,1.15,1.83,1.83,0,0,0,1.11,1.69,1.8,1.8,0,0,0,1,.1c.29-.06.59-.1.88-.18-.29-.09-.59-.12-.88-.18a1.62,1.62,0,0,1-.73-.25,1.38,1.38,0,0,1-.64-1.19,1.82,1.82,0,0,0-1.16-1.66,1.78,1.78,0,0,0-1-.06c-.29.06-.59.09-.88.18C311,394.86,311.34,394.89,311.63,395ZM332,339.63a1.66,1.66,0,0,1,.75.22,1.38,1.38,0,0,1,.67,1.16,1.83,1.83,0,0,0,1.11,1.68,1.72,1.72,0,0,0,1,.1c.29-.06.59-.1.88-.18-.29-.08-.59-.12-.88-.18a1.51,1.51,0,0,1-.73-.25,1.37,1.37,0,0,1-.64-1.19,1.78,1.78,0,0,0-2.15-1.72c-.29.06-.59.1-.88.18C331.39,339.53,331.69,339.57,332,339.63Zm-52-29.75a1.84,1.84,0,0,1,.75.23,1.35,1.35,0,0,1,.67,1.15,1.83,1.83,0,0,0,1.11,1.69,1.7,1.7,0,0,0,1,.09c.29-.06.59-.09.88-.18-.29-.08-.59-.11-.88-.18a1.62,1.62,0,0,1-.73-.24,1.4,1.4,0,0,1-.64-1.19,1.8,1.8,0,0,0-1.16-1.66,1.89,1.89,0,0,0-1-.07c-.29.06-.59.1-.88.18C279.36,309.79,279.66,309.82,280,309.88Zm32-.67a1.84,1.84,0,0,1,.75.23,1.37,1.37,0,0,1,.67,1.15,1.81,1.81,0,0,0,1.11,1.69,1.67,1.67,0,0,0,1,.09c.3-.06.59-.09.89-.18-.3-.08-.59-.12-.89-.18a1.62,1.62,0,0,1-.73-.24,1.41,1.41,0,0,1-.63-1.19,1.81,1.81,0,0,0-1.17-1.66,1.85,1.85,0,0,0-1-.07c-.3.06-.59.1-.89.18C311.39,309.11,311.68,309.15,312,309.21Zm-39.89,51.73a1.7,1.7,0,0,1,.75.22,1.4,1.4,0,0,1,.67,1.16,1.85,1.85,0,0,0,1.11,1.69,1.67,1.67,0,0,0,1,.09c.3-.06.6-.1.89-.18-.29-.08-.59-.12-.89-.18a1.7,1.7,0,0,1-.73-.24,1.41,1.41,0,0,1-.63-1.19,1.81,1.81,0,0,0-1.17-1.66,1.85,1.85,0,0,0-1-.07c-.3.06-.59.1-.89.18C271.5,360.84,271.79,360.88,272.09,360.94ZM307,414.53a1.65,1.65,0,0,1,.74.22,1.39,1.39,0,0,1,.68,1.16,1.83,1.83,0,0,0,1.1,1.69,1.71,1.71,0,0,0,1,.09c.3-.06.59-.1.89-.18-.3-.08-.59-.12-.89-.18a1.62,1.62,0,0,1-.73-.24,1.39,1.39,0,0,1-.63-1.19,1.81,1.81,0,0,0-1.17-1.66,1.86,1.86,0,0,0-1-.07c-.3.06-.59.1-.89.18C306.43,414.43,306.72,414.47,307,414.53Zm-17.2-28.8a1.84,1.84,0,0,1,.75.23,1.38,1.38,0,0,1,.67,1.15,1.83,1.83,0,0,0,1.11,1.69,1.76,1.76,0,0,0,1,.1c.3-.07.6-.1.89-.18a8.76,8.76,0,0,0-.89-.18,1.62,1.62,0,0,1-.73-.25,1.4,1.4,0,0,1-.63-1.19,1.82,1.82,0,0,0-1.17-1.66,1.75,1.75,0,0,0-1-.06c-.3.06-.59.09-.89.18C289.23,385.64,289.52,385.67,289.82,385.73Zm-39.38,29.52a1.71,1.71,0,0,1-.73-.25,1.39,1.39,0,0,1-.63-1.19,1.79,1.79,0,0,0-1.05-1.6c0,.24-.05.46-.07.68a1.33,1.33,0,0,1,.39.94,1.83,1.83,0,0,0,1.1,1.68,1.65,1.65,0,0,0,1,.1c.3-.06.59-.1.89-.18C251,415.34,250.74,415.31,250.44,415.25ZM258,391a1.61,1.61,0,0,1,.74.22,1.37,1.37,0,0,1,.68,1.16,1.77,1.77,0,0,0,2.09,1.78c.3-.06.59-.1.89-.18-.3-.08-.59-.12-.89-.18a1.62,1.62,0,0,1-.73-.25,1.38,1.38,0,0,1-.63-1.19,1.83,1.83,0,0,0-1.17-1.66,1.85,1.85,0,0,0-1-.06c-.3.06-.59.09-.89.18C257.42,390.87,257.71,390.91,258,391Zm46.45-29.33a1.79,1.79,0,0,1,.75.23,1.36,1.36,0,0,1,.67,1.15,1.83,1.83,0,0,0,1.11,1.69,1.81,1.81,0,0,0,1,.1c.29-.07.59-.1.88-.18-.29-.09-.59-.12-.88-.18a1.62,1.62,0,0,1-.73-.25,1.38,1.38,0,0,1-.64-1.19,1.81,1.81,0,0,0-1.16-1.66,1.78,1.78,0,0,0-1-.06c-.29.06-.59.09-.88.18C303.87,361.55,304.17,361.58,304.46,361.64Zm40.69,39.43a1.75,1.75,0,0,1,.74.23,1.36,1.36,0,0,1,.68,1.15,1.81,1.81,0,0,0,1.1,1.69,1.71,1.71,0,0,0,1,.09c.3-.06.59-.09.89-.18-.3-.08-.59-.12-.89-.18a1.62,1.62,0,0,1-.73-.24,1.39,1.39,0,0,1-.63-1.19,1.81,1.81,0,0,0-1.17-1.66,1.86,1.86,0,0,0-1-.07c-.3.06-.59.1-.89.18C344.56,401,344.85,401,345.15,401.07ZM329,377a1.75,1.75,0,0,1,.74.23,1.37,1.37,0,0,1,.68,1.15,1.81,1.81,0,0,0,1.1,1.69,1.71,1.71,0,0,0,1,.09c.3-.06.59-.09.89-.17-.3-.09-.59-.12-.89-.18a1.62,1.62,0,0,1-.73-.25,1.38,1.38,0,0,1-.63-1.19,1.82,1.82,0,0,0-1.17-1.66,1.75,1.75,0,0,0-1-.06c-.3.06-.59.09-.89.17C328.41,376.91,328.7,376.94,329,377Zm-47.95-50.18a1.73,1.73,0,0,1-.68.36,1.34,1.34,0,0,1-1.29-.34,1.85,1.85,0,0,0-2-.41,1.81,1.81,0,0,0-.77.64c-.16.25-.35.48-.5.75.27-.15.51-.33.76-.5a1.49,1.49,0,0,1,.69-.34,1.37,1.37,0,0,1,1.29.39,1.8,1.8,0,0,0,2,.35,1.85,1.85,0,0,0,.75-.65c.16-.25.35-.49.5-.75C281.54,326.47,281.31,326.65,281.05,326.82Zm47.81,34.39a1.67,1.67,0,0,1-.69.37,1.34,1.34,0,0,1-1.29-.34,1.82,1.82,0,0,0-2-.41,1.77,1.77,0,0,0-.76.63c-.17.26-.35.49-.5.76.27-.15.5-.34.75-.5a1.74,1.74,0,0,1,.69-.35,1.4,1.4,0,0,1,1.29.4,1.84,1.84,0,0,0,2,.35,1.76,1.76,0,0,0,.74-.65c.17-.25.35-.49.5-.76C329.34,360.86,329.11,361.05,328.86,361.21Zm-29.83-64a1.67,1.67,0,0,1-.69.37,1.37,1.37,0,0,1-1.29-.34,1.82,1.82,0,0,0-2-.41,1.7,1.7,0,0,0-.76.63c-.17.25-.35.49-.5.75.26-.15.5-.33.75-.5a1.78,1.78,0,0,1,.69-.34,1.4,1.4,0,0,1,1.29.4,1.78,1.78,0,0,0,2.74-.31c.17-.25.35-.48.5-.75C299.51,296.82,299.28,297,299,297.17Zm-.59,19a1.84,1.84,0,0,1-.23.75,1.37,1.37,0,0,1-1.15.67,1.83,1.83,0,0,0-1.69,1.11,1.68,1.68,0,0,0-.09,1,8.76,8.76,0,0,0,.18.89c.08-.29.12-.59.18-.89a1.7,1.7,0,0,1,.24-.73,1.41,1.41,0,0,1,1.19-.63,1.81,1.81,0,0,0,1.66-1.17,1.85,1.85,0,0,0,.07-1c-.06-.3-.1-.59-.18-.89C298.54,315.55,298.5,315.84,298.44,316.14Zm-7,52a1.79,1.79,0,0,1-.23.75,1.33,1.33,0,0,1-1.15.67,1.83,1.83,0,0,0-1.69,1.11,1.71,1.71,0,0,0-.09,1c.06.29.09.59.18.89.08-.3.11-.6.18-.89a1.62,1.62,0,0,1,.24-.73,1.36,1.36,0,0,1,1.19-.63,1.81,1.81,0,0,0,1.66-1.17,1.89,1.89,0,0,0,.07-1c-.07-.29-.1-.59-.18-.88C291.49,367.52,291.46,367.82,291.4,368.11Zm36.88-45.27h-.15a1.82,1.82,0,0,0-1.69,1.1,1.71,1.71,0,0,0-.09,1,8.76,8.76,0,0,0,.18.89c.08-.29.12-.59.18-.89a1.66,1.66,0,0,1,.24-.73,1.41,1.41,0,0,1,1.19-.63,1.28,1.28,0,0,0,.48-.09Zm-.25,84a1.75,1.75,0,0,1-.23.74,1.37,1.37,0,0,1-1.15.68,1.82,1.82,0,0,0-1.69,1.1,1.71,1.71,0,0,0-.09,1c.06.3.09.59.17.89.09-.3.12-.59.18-.89a1.62,1.62,0,0,1,.25-.73,1.38,1.38,0,0,1,1.19-.63,1.82,1.82,0,0,0,1.66-1.17,1.75,1.75,0,0,0,.06-1c-.06-.3-.09-.59-.17-.89C328.12,406.2,328.09,406.49,328,406.79Zm15.86-47.12a.26.26,0,0,1,0,.08,1.36,1.36,0,0,1-1.16.67,1.83,1.83,0,0,0-1.68,1.11,1.63,1.63,0,0,0-.1,1c.06.29.1.59.18.89.09-.3.12-.6.18-.89a1.51,1.51,0,0,1,.25-.73,1.37,1.37,0,0,1,1.19-.64,1.83,1.83,0,0,0,1.42-.73h0C344.06,360.17,344,359.92,343.89,359.67ZM262.75,370a1.79,1.79,0,0,1-.23.75,1.34,1.34,0,0,1-1.15.67,1.83,1.83,0,0,0-1.69,1.11,1.71,1.71,0,0,0-.09,1c.06.29.09.59.17.89.09-.3.12-.6.18-.89a1.62,1.62,0,0,1,.25-.73,1.38,1.38,0,0,1,1.19-.64A1.76,1.76,0,0,0,263.1,370c-.06-.29-.09-.59-.17-.88C262.84,369.38,262.81,369.68,262.75,370Zm1.95-46.57c-.16.52-.32,1-.47,1.54a1.6,1.6,0,0,0,.39-.62A2,2,0,0,0,264.7,323.4ZM281.34,293a1.84,1.84,0,0,1-.23.75,1.35,1.35,0,0,1-1.15.67,1.83,1.83,0,0,0-1.69,1.11,1.7,1.7,0,0,0-.09,1c.06.29.09.59.18.88.08-.29.12-.59.18-.88a1.62,1.62,0,0,1,.24-.73,1.4,1.4,0,0,1,1.19-.64,1.8,1.8,0,0,0,1.66-1.16,1.89,1.89,0,0,0,.07-1c-.06-.29-.1-.59-.18-.88C281.44,292.43,281.4,292.73,281.34,293Zm-4.57,46.87a1.7,1.7,0,0,1-.22.75,1.38,1.38,0,0,1-1.16.67,1.83,1.83,0,0,0-1.68,1.11,1.71,1.71,0,0,0-.1,1c.06.29.1.59.18.88.08-.29.12-.59.18-.88a1.51,1.51,0,0,1,.25-.73,1.37,1.37,0,0,1,1.19-.64,1.78,1.78,0,0,0,1.72-2.15c-.06-.29-.1-.59-.18-.88C276.87,339.3,276.83,339.6,276.77,339.89Zm41,6.3a1.66,1.66,0,0,1-.22.75,1.38,1.38,0,0,1-1.16.67,1.83,1.83,0,0,0-1.68,1.11,1.71,1.71,0,0,0-.1,1c.06.29.1.59.18.88.08-.29.12-.59.18-.88a1.62,1.62,0,0,1,.24-.73,1.4,1.4,0,0,1,1.2-.64,1.78,1.78,0,0,0,1.72-2.15c-.06-.29-.1-.59-.18-.88C317.88,345.6,317.84,345.9,317.78,346.19Zm-37.9,52.63a1.79,1.79,0,0,1-.23.75,1.35,1.35,0,0,1-1.15.67,1.83,1.83,0,0,0-1.69,1.11,1.71,1.71,0,0,0-.09,1c.06.29.09.59.18.88.08-.29.12-.59.18-.88a1.62,1.62,0,0,1,.24-.73,1.4,1.4,0,0,1,1.19-.64,1.8,1.8,0,0,0,1.66-1.16,1.89,1.89,0,0,0,.07-1c-.06-.29-.1-.59-.18-.88C280,398.23,279.94,398.53,279.88,398.82Zm31.81-68.89a1.64,1.64,0,0,1,.68-.37,1.37,1.37,0,0,1,1.29.34,1.83,1.83,0,0,0,2,.41,1.79,1.79,0,0,0,.77-.63c.16-.25.35-.49.5-.76-.27.16-.51.34-.76.5a1.62,1.62,0,0,1-.69.35,1.4,1.4,0,0,1-1.29-.4,1.78,1.78,0,0,0-2.74.31c-.16.25-.35.48-.5.75C311.2,330.28,311.43,330.09,311.69,329.93ZM287.76,351.6a1.67,1.67,0,0,1,.69-.37,1.34,1.34,0,0,1,1.29.34,1.82,1.82,0,0,0,2,.41,1.7,1.7,0,0,0,.76-.63c.17-.26.35-.49.5-.76-.26.15-.5.34-.75.5a1.74,1.74,0,0,1-.69.35,1.4,1.4,0,0,1-1.29-.4,1.83,1.83,0,0,0-2-.35,1.9,1.9,0,0,0-.74.65c-.17.26-.35.49-.5.76C287.28,352,287.51,351.76,287.76,351.6Zm-16.2,31.92a1.64,1.64,0,0,1,.68-.37,1.38,1.38,0,0,1,1.3.34,1.81,1.81,0,0,0,2,.41,1.73,1.73,0,0,0,.77-.63c.16-.25.35-.49.5-.76-.27.16-.5.34-.76.5a1.62,1.62,0,0,1-.69.35A1.4,1.4,0,0,1,274,383a1.78,1.78,0,0,0-2.74.31c-.16.25-.35.48-.5.75C271.07,383.87,271.3,383.68,271.56,383.52Zm7,33.17a1.67,1.67,0,0,1,.69-.37,1.34,1.34,0,0,1,1.29.34,1.82,1.82,0,0,0,2,.41,1.7,1.7,0,0,0,.76-.63c.17-.25.35-.49.5-.76-.27.15-.5.34-.75.5a1.74,1.74,0,0,1-.69.35,1.4,1.4,0,0,1-1.29-.4,1.81,1.81,0,0,0-2-.34,1.75,1.75,0,0,0-.74.65c-.17.25-.35.48-.5.75C278.08,417,278.31,416.85,278.56,416.69Zm31.36-36.45a1.67,1.67,0,0,1,.69-.37,1.34,1.34,0,0,1,1.29.34,1.82,1.82,0,0,0,2,.41,1.7,1.7,0,0,0,.76-.63c.17-.26.35-.49.5-.76-.26.15-.5.34-.75.5a1.74,1.74,0,0,1-.69.35,1.4,1.4,0,0,1-1.29-.4,1.83,1.83,0,0,0-2-.35,1.9,1.9,0,0,0-.74.65c-.17.26-.35.49-.5.76C309.44,380.59,309.67,380.4,309.92,380.24Zm21.59,13.21a1.64,1.64,0,0,1,.68-.37,1.35,1.35,0,0,1,1.3.34,1.81,1.81,0,0,0,2,.41,1.73,1.73,0,0,0,.77-.63c.16-.25.35-.49.5-.76-.27.15-.5.34-.76.5a1.62,1.62,0,0,1-.69.35,1.4,1.4,0,0,1-1.29-.4,1.8,1.8,0,0,0-2-.34,1.69,1.69,0,0,0-.74.65c-.17.25-.35.48-.51.75C331,393.8,331.26,393.61,331.51,393.45Zm-36.31,10a1.61,1.61,0,0,1,.69-.37,1.34,1.34,0,0,1,1.29.34,1.77,1.77,0,0,0,2.74-.22c.17-.26.35-.49.5-.76-.27.15-.5.34-.75.5a1.74,1.74,0,0,1-.69.35,1.39,1.39,0,0,1-1.29-.4,1.84,1.84,0,0,0-2-.35,1.76,1.76,0,0,0-.74.65c-.17.26-.35.49-.5.76C294.71,403.83,295,403.64,295.2,403.48ZM342,416.69a1.64,1.64,0,0,1,.68-.37,1.35,1.35,0,0,1,1.3.34,1.81,1.81,0,0,0,2,.41,1.73,1.73,0,0,0,.77-.63c.16-.25.35-.49.5-.76-.27.15-.5.34-.76.5a1.62,1.62,0,0,1-.69.35,1.4,1.4,0,0,1-1.29-.4,1.78,1.78,0,0,0-2.74.31c-.16.25-.35.48-.5.75C341.54,417,341.78,416.85,342,416.69Zm8.35-35.91a1.3,1.3,0,0,1-.58-.35,1.81,1.81,0,0,0-2-.34,1.89,1.89,0,0,0-.74.65c-.16.25-.35.48-.5.75.27-.15.5-.34.75-.5a1.74,1.74,0,0,1,.69-.37,1.38,1.38,0,0,1,1.29.34,1.87,1.87,0,0,0,1.29.54ZM261.79,408a1.73,1.73,0,0,1,.68-.36,1.34,1.34,0,0,1,1.29.34,1.78,1.78,0,0,0,2.75-.22c.16-.26.35-.49.5-.76-.27.15-.51.34-.76.5a1.49,1.49,0,0,1-.69.34,1.37,1.37,0,0,1-1.29-.39,1.8,1.8,0,0,0-2-.35,1.85,1.85,0,0,0-.75.65c-.16.25-.35.49-.5.76C261.3,408.39,261.53,408.21,261.79,408Zm-2.68-55.69a1.67,1.67,0,0,1,.69-.37,1.37,1.37,0,0,1,1.29.34,1.82,1.82,0,0,0,2,.41,1.7,1.7,0,0,0,.76-.63c.17-.25.35-.49.5-.76-.27.16-.5.34-.75.5a1.74,1.74,0,0,1-.69.35,1.4,1.4,0,0,1-1.29-.4,1.81,1.81,0,0,0-2-.34,1.75,1.75,0,0,0-.74.65c-.17.25-.35.48-.5.75C258.63,352.7,258.86,352.51,259.11,352.35Z" style="fill:#dbdbdb"></path><path d="M265,321.55q-1.53,5.54-2.95,11.08c.12-1.61.3-3.23.5-4.83,0-.1-.13-.14-.15,0a34.26,34.26,0,0,0-.66,6.06c-1.14,4.46-2.22,8.94-3.21,13.44-1.9,8.63-3.59,17.33-5,26.05-.79,4.92-1.4,9.87-2.25,14.78,0,.09.13.13.15,0,.77-4.35,1.8-8.68,2.75-13s1.85-8.6,2.74-12.9c1.8-8.66,3.69-17.29,5.48-26,1-4.87,1.94-9.76,2.94-14.64A.18.18,0,0,0,265,321.55Z" style="fill:#263238"></path><path d="M318.11,301.56C336,320.75,378.64,392.75,364.82,406s-90.49-4.6-112-14.86c-6.41-3.05,17.94-43,25.47-43.93,6.27-.77,38.32,13.89,39.25,12,1-2.08-6.24-15.46-13.95-43.3C294.67,283.87,310.19,293.08,318.11,301.56Z" style="fill:#ad6359"></path><path d="M246.43,334.35c-15.58-2.17-19.91-.34-32.08-9.15-8-5.78-15.1-3.16-10.54,6,7.45,15,26.95,22,34.41,22.52Z" style="fill:#ad6359"></path><path d="M287.79,349.34s-17.5-9.72-33.86-13.67c-11.32-2.73-36.61-5.93-60.8,19-5.74,5.92-9.72,18.42,3.17,12.16,9.15-4.45,13.6-10,19.4-11.65,0,0-3.18,16.5,3,22a151.65,151.65,0,0,0,17.1,13.27,31.78,31.78,0,0,0,2.77-3s6.23,4.61,18,3.5Z" style="fill:#ad6359"></path><path d="M242.71,334.79c-5.41,2.82-16.78,9-24.32,17.27-8.38,9.2-22,29.19-15.19,35.3,5,4.48,10.92-2.69,10.92-2.69s-3.91,9.45,1.52,12.51c4.94,2.79,9.16-3,9.16-3s-1.38,6.13,3.9,7.9c6.35,2.12,8.21-11.09,16.5-14.5C247.06,386.79,242.71,334.79,242.71,334.79Z" style="fill:#ad6359"></path><path d="M229.58,359.29c-4.65,3.49-13.19,14.13-15.55,25.14-.05.25.11.42.21.21a122.11,122.11,0,0,1,15.43-25.27C229.71,359.32,229.64,359.26,229.58,359.29Z" style="fill:#263238"></path><path d="M238.63,368c-3.71,3.42-12,14.78-14,26,0,.25.13.41.22.19a130.7,130.7,0,0,1,13.9-26.13C238.76,368,238.67,368,238.63,368Z" style="fill:#263238"></path><path d="M215.7,355.09c-5.08,1.49-8.38,4-12.66,7a70.62,70.62,0,0,1-6.54,4.14c-2.07,1.11-5.12,2.8-7.32,1.05-1.22-1-1.21-2.74-.93-4.14a11.06,11.06,0,0,1,1.84-4.39c0-.06-.07-.15-.12-.08a15,15,0,0,0-2.1,3.75,6.83,6.83,0,0,0-.46,4c.75,2.8,4.05,3.17,6.39,2.4a22.27,22.27,0,0,0,4-1.94c1.23-.7,2.43-1.47,3.6-2.26,2.41-1.63,4.73-3.4,7.12-5.05a64.17,64.17,0,0,1,7.26-4.23A.09.09,0,0,0,215.7,355.09Z" style="fill:#263238"></path><path d="M205.07,372.94c1.31-2.89,8.42-14.94,10.73-17.73.06-.07,0-.16-.11-.1-3.95,3.75-10.31,13.71-11.79,16.9s-3.15,7.18-3.15,10.7c0,5.3,3.52,6.3,4.82,6.56a6.81,6.81,0,0,0,4.51-.74,13.86,13.86,0,0,0,4.09-3.84c.05-.07,0-.17-.11-.1-1.83,2.09-4.89,4.15-7.77,3.77a4.81,4.81,0,0,1-3.28-1.77,6.28,6.28,0,0,1-.84-4.27A28.81,28.81,0,0,1,205.07,372.94Z" style="fill:#263238"></path><path d="M224.6,394c-.74.63-2.26,2.83-4.67,3.3a5.48,5.48,0,0,1-5-1.11,6.91,6.91,0,0,1-1.9-4.82,43.21,43.21,0,0,1,1.11-6.68c0-.1-.11-.15-.14-.05a24.78,24.78,0,0,0-1.59,7.18,7.24,7.24,0,0,0,2,5.29A5.44,5.44,0,0,0,220,398.3c.94-.36,3.93-2.27,4.79-4.15C224.82,394.1,224.63,394,224.6,394Z" style="fill:#263238"></path><path d="M244.7,386.6a13.1,13.1,0,0,0-2.25,1.9c-.74.71-1.46,1.46-2.16,2.22a30.2,30.2,0,0,0-3.67,5c-1.07,1.8-2.06,3.8-3.8,5.06a5,5,0,0,1-5.81.14,4.85,4.85,0,0,1-1.81-2.69,9.63,9.63,0,0,1-.34-3.62.07.07,0,1,0-.14,0,16.38,16.38,0,0,0-.26,3.28,5.76,5.76,0,0,0,1,2.8,5.53,5.53,0,0,0,5.41,2,8.13,8.13,0,0,0,5-3.87c1.34-2,2.45-4.15,3.88-6.1.75-1,1.49-2.06,2.31-3s1.89-1.91,2.68-3A.1.1,0,0,0,244.7,386.6Z" style="fill:#263238"></path><path d="M250.9,391.12a45,45,0,0,1-8.53-1.77c-.09,0-.22.22-.14.27a20.71,20.71,0,0,0,4.21,1.39,15.06,15.06,0,0,0,4.44.27C251,391.27,251,391.13,250.9,391.12Z" style="fill:#263238"></path><path d="M346.5,373.29a112.19,112.19,0,0,0-14.09-8.06,108.56,108.56,0,0,0-15-5.79c-2.92-.93-5.87-1.71-8.82-2.51-.09,0-.12.11,0,.14a140.87,140.87,0,0,1,15.11,5.67q7.37,3.18,14.6,6.62c2.73,1.3,5.4,2.73,8.09,4.12A.11.11,0,0,0,346.5,373.29Z" style="fill:#263238"></path><path d="M354.8,346.81l-43.49-1.44s-8.09-21.46-11.17-40.56S312.7,291.55,329,312,354.8,346.81,354.8,346.81Z" style="fill:#a6a6a6"></path><path d="M316.15,329.43a1.78,1.78,0,0,1-.69.34,1.38,1.38,0,0,1-1.28-.4,1.82,1.82,0,0,0-2-.34,1.85,1.85,0,0,0-.75.65c-.17.25-.35.48-.5.75.27-.15.5-.34.76-.5a1.58,1.58,0,0,1,.68-.37,1.41,1.41,0,0,1,1.3.34,1.81,1.81,0,0,0,2,.41,1.7,1.7,0,0,0,.76-.63,7.52,7.52,0,0,0,.5-.75C316.63,329.08,316.4,329.26,316.15,329.43Zm13.72-8c-.06-.29-.1-.59-.18-.89-.09.3-.12.6-.18.89a1.74,1.74,0,0,1-.22.74,1.36,1.36,0,0,1-1.16.68,1.82,1.82,0,0,0-1.69,1.1,1.71,1.71,0,0,0-.09,1,8.76,8.76,0,0,0,.18.89c.08-.29.12-.59.18-.89a1.66,1.66,0,0,1,.24-.73,1.41,1.41,0,0,1,1.19-.63,1.82,1.82,0,0,0,1.66-1.17A1.76,1.76,0,0,0,329.87,321.43Zm-15.28-23.91a1.55,1.55,0,0,0,0,.31c.06.29.09.59.18.88.08-.29.12-.59.18-.88v0C314.85,297.7,314.72,297.61,314.59,297.52Zm31,36.17a1.26,1.26,0,0,1-.86-.38,1.83,1.83,0,0,0-2-.41,1.73,1.73,0,0,0-.77.63c-.17.26-.35.49-.5.76.27-.15.5-.33.76-.5a1.41,1.41,0,0,1,.68-.34,1.39,1.39,0,0,1,1.3.39,1.81,1.81,0,0,0,1.78.43ZM315.5,312a1.62,1.62,0,0,1-.74-.24,1.38,1.38,0,0,1-.63-1.19,1.81,1.81,0,0,0-1.16-1.66,1.9,1.9,0,0,0-1-.07c-.3.07-.6.1-.89.19.29.07.59.11.89.17a1.89,1.89,0,0,1,.75.22,1.41,1.41,0,0,1,.67,1.16,1.82,1.82,0,0,0,1.11,1.69,1.7,1.7,0,0,0,1,.09c.28-.06.58-.09.88-.17C316.08,312.11,315.78,312.08,315.5,312Zm20,30.42a1.51,1.51,0,0,1-.73-.25,1.37,1.37,0,0,1-.64-1.19,1.81,1.81,0,0,0-1.16-1.65,1.86,1.86,0,0,0-1-.07c-.3.07-.59.09-.89.18.3.08.59.12.89.18a1.65,1.65,0,0,1,.74.22,1.36,1.36,0,0,1,.67,1.16,1.83,1.83,0,0,0,1.11,1.68,1.63,1.63,0,0,0,1,.1c.3-.06.59-.1.89-.18C336.09,342.52,335.8,342.49,335.5,342.43Z" style="fill:#dbdbdb"></path><path d="M313.1,345.23c-.23,0-1.76-.27-1.77-.27-.11-.57-2.59-9.54-3.24-11.5-1.33-4-2.89-7.88-4.4-11.8-.05-.12-.24-.07-.2.06,1,3.37,1.9,6.76,2.91,10.12-.3-.48-.6-1-.89-1.44-.59-1-1.1-2-1.65-3a.09.09,0,0,0-.17.07,17.13,17.13,0,0,0,1.92,4,15.62,15.62,0,0,0,1.13,1.54c.09.28.17.56.26.83.61,2,3.8,11.68,4,11.69l2.1,0C313.18,345.52,313.22,345.23,313.1,345.23Z" style="fill:#263238"></path><path d="M347.76,338.39c-9.38-.7-18.82-.74-28.24-.6-2.66,0-5.33.14-8,.31-.08,0-.09.11,0,.11,4.69.26,9.39.31,14.09.4s9.43.14,14.14.09c2.66,0,5.32-.05,8-.13A.09.09,0,0,0,347.76,338.39Z" style="fill:#263238"></path><path d="M277.55,292.78c-2.89,2.42-5.79,11.45-4.19,17.42s4.75,9.81,10.18,9.33,15.86-4.63,22.66-16.81S291.77,280.89,277.55,292.78Z" style="fill:#dbdbdb"></path><path d="M281.47,312.84c6.42,1.89,18.11-7.45,23-15.26.33-.54-.78-22.75-.54-27.17.05-.91-28.11,5.25-28.11,5.25s2.23,9.41,1.77,17.12C277.5,293.43,275.26,311,281.47,312.84Z" style="fill:#ad6359"></path><path d="M304.4,291.93c-14.8,2.19-22.83-2.24-27-6.49a82.76,82.76,0,0,0-1.56-9.79s28.15-6.15,28.1-5.24C303.73,273.45,304.2,284.9,304.4,291.93Z" style="fill:#263238"></path><path d="M268.9,234.77c-4.11,9.44-2.18,38.31,4.06,45.41,9.05,10.29,25.47,13.06,34.62,1.82,8.88-10.9,5.7-48.47-1.42-55.09C295.67,217.16,275,220.81,268.9,234.77Z" style="fill:#ad6359"></path><path d="M295,255.1c0-.07-.15.1-.14.18.18,1.94.06,4.2-1.66,5-.05,0,0,.12,0,.11C295.38,259.9,295.5,256.91,295,255.1Z" style="fill:#263238"></path><path d="M293.16,253.18c-3.15-.05-3,6.24-.09,6.28S295.79,253.21,293.16,253.18Z" style="fill:#263238"></path><path d="M305.78,255.15c0-.08.16.09.16.17,0,1.95.29,4.18,2.07,4.79.05,0,.05.12,0,.11C305.83,260,305.46,257,305.78,255.15Z" style="fill:#263238"></path><path d="M307.48,253.08c3.13-.31,3.51,6,.62,6.25S304.86,253.33,307.48,253.08Z" style="fill:#263238"></path><path d="M290.61,250.36a24.88,24.88,0,0,0,2.41-.91,4.22,4.22,0,0,0,2.29-1.41,1.32,1.32,0,0,0-.25-1.6,3.3,3.3,0,0,0-3.33-.26,4.83,4.83,0,0,0-2.74,2.15A1.42,1.42,0,0,0,290.61,250.36Z" style="fill:#263238"></path><path d="M309.84,249.85a24.24,24.24,0,0,1-2.52-.59,4.24,4.24,0,0,1-2.45-1.09,1.34,1.34,0,0,1,0-1.62,3.28,3.28,0,0,1,3.27-.7,4.85,4.85,0,0,1,3,1.78A1.42,1.42,0,0,1,309.84,249.85Z" style="fill:#263238"></path><path d="M293.11,273.21c.48.45,1,1.06,1.67,1.11a5.3,5.3,0,0,0,2.08-.54.07.07,0,0,1,.08.1A2.6,2.6,0,0,1,294.5,275a2.06,2.06,0,0,1-1.57-1.69C292.89,273.19,293,273.15,293.11,273.21Z" style="fill:#263238"></path><path d="M295,267.33a6.65,6.65,0,0,0,4.5,2.85,8.31,8.31,0,0,0,2.39.06,2.22,2.22,0,0,0,.45-.07l.43-.07a.48.48,0,0,0,.38-.45h0a1.36,1.36,0,0,0,0-.2h0v-.18c0-1.5-.19-3.77-.19-3.77.55.26,3.37,1.45,3.31.67-.53-6.48-1.13-13.68-3-20a.18.18,0,0,0-.35.06c.26,6.25,1.63,12.4,2,18.67a11.69,11.69,0,0,0-3.15-.87c-.22.06.46,4.39.4,5.06a.45.45,0,0,1,0,.08c-2.51.38-4.43-.34-6.92-2C295.06,267,294.9,267.18,295,267.33Z" style="fill:#263238"></path><path d="M301,269.5a7.89,7.89,0,0,1-3.1,2.51,3.47,3.47,0,0,1-2.15.18c-1.56-.37-1.63-1.8-1.38-3a8.3,8.3,0,0,1,.66-1.88A10.25,10.25,0,0,0,301,269.5Z" style="fill:#263238"></path><path d="M297.91,272a3.47,3.47,0,0,1-2.15.18c-1.56-.37-1.63-1.8-1.38-3C296.06,269.3,297.73,270.39,297.91,272Z" style="fill:#ff99ba"></path><path d="M268,257.16c7.35.31,9.41-13,9.41-13s12.72-1.48,15-10.89c0,0,11.61,8.21,21.19,5.24s8.11-13.72,7.17-16.05-6.36,1.66-6.36,1.66-.31-6.06-1.89-6.75-3.51,2.88-3.51,2.88-11.94-4.64-23-4.84-17,10.63-17,10.63-6,1-8.05,5S263.31,257,268,257.16Z" style="fill:#263238"></path><path d="M292.33,231.48a15.66,15.66,0,0,1-1.41,5.58,10.53,10.53,0,0,1-3.68,4.17,15.31,15.31,0,0,1-5.33,1.86c-.94.14-1.91.19-2.88.27s-1.95,0-2.94,0c1,.18,2,.3,2.93.45s2,0,3,0a13.34,13.34,0,0,0,5.75-1.79,10,10,0,0,0,3.83-4.67A12.24,12.24,0,0,0,292.33,231.48Z" style="fill:#263238"></path><path d="M268.9,227.58a18.05,18.05,0,0,1,4.72-8.07,14.38,14.38,0,0,1,8.23-3.94,16.44,16.44,0,0,1,2.32-.24l2.35.07c1.56.12,3.11.47,4.66.73,1.51.45,3.07.8,4.56,1.32s3,1.13,4.5,1.66c-1.43-.72-2.88-1.39-4.33-2.09s-3-1.06-4.55-1.6a24.33,24.33,0,0,0-9.65-.79A14.69,14.69,0,0,0,273.1,219,16.28,16.28,0,0,0,268.9,227.58Z" style="fill:#263238"></path><path d="M290.7,264.2a8.34,8.34,0,1,1,9.11-9.51h0a8.36,8.36,0,0,1-7,9.47A8.46,8.46,0,0,1,290.7,264.2Zm1.6-15.48a7.22,7.22,0,1,0,6.41,6.13A7.25,7.25,0,0,0,292.3,248.72Z" style="fill:#FF4F5A"></path><path d="M309.84,263.83c-3.18-.32-5.72-3.87-5.78-8.22a9.93,9.93,0,0,1,1.68-5.86,5.2,5.2,0,0,1,8.89-.13,10,10,0,0,1,1.84,5.81c.07,4.6-2.66,8.38-6.08,8.43A4.93,4.93,0,0,1,309.84,263.83Zm.75-15.52-.43,0a4.46,4.46,0,0,0-3.51,2.1,8.84,8.84,0,0,0-1.48,5.2c.06,4,2.38,7.19,5.2,7.15s5.05-3.31,5-7.29a8.85,8.85,0,0,0-1.62-5.16A4.6,4.6,0,0,0,310.59,248.31Z" style="fill:#FF4F5A"></path><path d="M299.54,255.66l-.73-.85c1.25-1.08,4.16-2.55,6.22-.4l-.8.78C302.38,253.26,299.66,255.56,299.54,255.66Z" style="fill:#FF4F5A"></path><path d="M262.41,258.33l-1-.5c.23-.46,2.34-4.56,4.82-5,2.32-.4,17.29.79,17.92.84l-.09,1.11c-4.29-.34-15.84-1.17-17.63-.85C264.8,254.22,263,257.21,262.41,258.33Z" style="fill:#FF4F5A"></path><path d="M272.3,258.5s-5.54-9.77-9.91-7.87-.81,15.62,3.9,17.9a5,5,0,0,0,6.9-2Z" style="fill:#ad6359"></path><path d="M263.51,254.54c-.08,0-.1.09,0,.13,3.29,1.71,4.79,5.05,5.75,8.46-.9-1.36-2.22-2.19-4-1.14a.1.1,0,0,0,.07.19,3.07,3.07,0,0,1,3.26,1.39,14,14,0,0,1,1.35,2.87c.14.32.7.21.62-.16,0,0,0,0,0-.08C271,261.85,268.15,255.42,263.51,254.54Z" style="fill:#263238"></path></g><g id="freepik--Desk--inject-2"><polygon points="55.82 418.76 135.62 418.51 215.41 418.43 375 418.26 534.59 418.42 614.38 418.51 694.18 418.76 614.38 419 534.59 419.09 375 419.25 215.41 419.09 135.62 419 55.82 418.76" style="fill:#263238"></polygon></g><g id="freepik--device-2--inject-2"><rect x="509.39" y="416.24" width="111.19" height="4.99" style="fill:#455a64"></rect><rect x="509.39" y="416.24" width="55.97" height="4.99" style="fill:#263238"></rect><polygon points="564.06 421.23 672.43 421.23 687.74 347.63 579.37 347.63 564.06 421.23" style="fill:#37474f"></polygon><path d="M617.5,386.07a6.38,6.38,0,0,0,6.46,7.22,8.22,8.22,0,0,0,8-7.22,6.39,6.39,0,0,0-6.47-7.22A8.21,8.21,0,0,0,617.5,386.07Z" style="fill:#fff"></path></g><g id="freepik--device-1--inject-2"><rect x="222.9" y="413.93" width="6.14" height="4.01" transform="translate(451.94 831.88) rotate(180)" style="fill:#455a64"></rect><rect x="214.93" y="413.67" width="6.14" height="4.01" transform="translate(436.01 831.35) rotate(180)" style="fill:#455a64"></rect><rect x="206.97" y="413.4" width="6.14" height="4.01" transform="translate(420.08 830.82) rotate(180)" style="fill:#455a64"></rect><rect x="199" y="413.14" width="6.14" height="4.01" transform="translate(404.15 830.28) rotate(180)" style="fill:#455a64"></rect><rect x="191.04" y="412.87" width="6.14" height="4.01" transform="translate(388.22 829.75) rotate(180)" style="fill:#455a64"></rect><rect x="183.07" y="412.61" width="6.14" height="4.01" transform="translate(372.29 829.23) rotate(180)" style="fill:#455a64"></rect><rect x="175.11" y="412.34" width="6.14" height="4.01" transform="translate(356.36 828.7) rotate(180)" style="fill:#455a64"></rect><rect x="167.14" y="412.08" width="6.14" height="4.01" transform="translate(340.43 828.16) rotate(180)" style="fill:#455a64"></rect><rect x="159.18" y="411.81" width="6.14" height="4.01" transform="translate(324.5 827.64) rotate(180)" style="fill:#455a64"></rect><polygon points="157.68 420.25 230.54 420.25 230.54 415.37 157.68 413.34 157.68 420.25" style="fill:#37474f"></polygon><polygon points="86.55 401.01 206.85 401.01 187.72 311.45 67.42 311.45 86.55 401.01" style="fill:#455a64"></polygon><polygon points="82.1 401.01 202.4 401.01 183.27 311.45 62.97 311.45 82.1 401.01" style="fill:#37474f"></polygon><path d="M122.29,351a9.05,9.05,0,0,0,8.62,7.44,6.2,6.2,0,0,0,6.26-7.44,9.06,9.06,0,0,0-8.62-7.44A6.19,6.19,0,0,0,122.29,351Z" style="fill:#263238"></path><polygon points="116.13 424.4 175.29 424.4 175.29 419.8 116.13 417.89 116.13 424.4" style="fill:#455a64"></polygon><polygon points="100.04 424.39 131.81 424.39 150.94 374.21 119.17 374.21 100.04 424.39" style="fill:#455a64"></polygon><polygon points="94.81 424.39 126.58 424.39 145.71 374.21 113.94 374.21 94.81 424.39" style="fill:#263238"></polygon><path d="M232.79,425.62h61c5.21,0-2.32-14.83-21.32-20.51S226.8,420.06,232.79,425.62Z" style="fill:#37474f"></path><path d="M256.73,425.62a38,38,0,0,0-1.53-4.74,29.36,29.36,0,0,0-2.17-4.39,21,21,0,0,0-2.94-3.89l-.85-.88-.94-.81c-.59-.59-1.33-1-2-1.51a14.24,14.24,0,0,1,4.32,2.63,16.87,16.87,0,0,1,3.25,3.94A19.65,19.65,0,0,1,256.73,425.62Z" style="fill:#263238"></path><path d="M249.5,411.51c-1.66.91-3.29,1.85-4.91,2.8s-3.2,1.94-4.71,3a31,31,0,0,0-4.25,3.57,10.85,10.85,0,0,0-2.84,4.71,8.91,8.91,0,0,1,2.26-5.22,21.67,21.67,0,0,1,4.25-3.87A36.84,36.84,0,0,1,249.5,411.51Z" style="fill:#263238"></path></g><g id="freepik--Drink--inject-2"><polygon points="346.03 389.01 341.64 444.23 311.26 444.23 306.86 389.01 346.03 389.01" style="fill:#FF4F5A"></polygon><rect x="303.99" y="384.02" width="44.66" height="8.05" style="fill:#455a64"></rect><polygon points="345.59 384.02 307.05 384.02 309.3 374.98 343.33 374.98 345.59 384.02" style="fill:#37474f"></polygon><path d="M337,417.1c0,7.17-4.72,13-10.54,13s-10.55-5.82-10.55-13,4.72-13,10.55-13S337,409.93,337,417.1Z" style="fill:#fff"></path></g><g id="freepik--speech-bubble--inject-2"><path d="M331.82,249.18a17.48,17.48,0,0,1-3-9.67c0-12.25,13.45-22.19,30-22.19s30,9.94,30,22.19-13.44,22.19-30,22.19a36,36,0,0,1-20.72-6.14l-10.35,2.63Z" style="fill:#fff"></path><path d="M331.82,249.18a17.17,17.17,0,0,1-.73-18.56,23.84,23.84,0,0,1,6.62-7.2,31.47,31.47,0,0,1,8.73-4.46,40,40,0,0,1,9.62-1.94,41.35,41.35,0,0,1,9.81.49,34.94,34.94,0,0,1,9.39,2.92,29,29,0,0,1,8.1,5.6,20.68,20.68,0,0,1,5.24,8.38,17,17,0,0,1,.09,9.88,20.44,20.44,0,0,1-5.1,8.45,28.69,28.69,0,0,1-8,5.7A38.71,38.71,0,0,1,356.39,262,35.71,35.71,0,0,1,338,255.75l.18,0-10.37,2.52-.23.05.1-.2Zm0,0-3.92,9.06-.13-.15,10.32-2.75.1,0,.09.06a35.3,35.3,0,0,0,18.15,5.89,40.19,40.19,0,0,0,9.61-.65,34.85,34.85,0,0,0,9.13-3,28.15,28.15,0,0,0,7.76-5.55,19.57,19.57,0,0,0,4.83-8.08,16,16,0,0,0-.12-9.32,19.58,19.58,0,0,0-5-8,27.9,27.9,0,0,0-7.82-5.45,34,34,0,0,0-9.14-2.89,41.8,41.8,0,0,0-9.61-.53,40,40,0,0,0-9.45,1.78,30.79,30.79,0,0,0-8.61,4.27,23.69,23.69,0,0,0-6.58,7,17.29,17.29,0,0,0-2.53,9.19A17.59,17.59,0,0,0,331.82,249.18Z" style="fill:#263238"></path><path d="M369.67,239.51a3.12,3.12,0,1,0,3.11-3.11A3.12,3.12,0,0,0,369.67,239.51Z" style="fill:#263238"></path><path d="M355.75,239.51a3.12,3.12,0,1,0,3.11-3.11A3.12,3.12,0,0,0,355.75,239.51Z" style="fill:#263238"></path><path d="M341.83,239.51a3.12,3.12,0,1,0,3.11-3.11A3.12,3.12,0,0,0,341.83,239.51Z" style="fill:#263238"></path></g></svg>